<?xml version="1.0" standalone="no"?>
<!DOCTYPE svg PUBLIC "-//W3C//DTD SVG 1.1//EN" "http://www.w3.org/Graphics/SVG/1.1/DTD/svg11.dtd" >
<svg xmlns="http://www.w3.org/2000/svg">
<metadata></metadata>
<defs>
<font id="BauerBodoniStdBold" horiz-adv-x="1138" >
<font-face units-per-em="2048" ascent="1505" descent="-543" />
<missing-glyph horiz-adv-x="569" />
<glyph horiz-adv-x="0" />
<glyph horiz-adv-x="2048" />
<glyph unicode=" "  horiz-adv-x="569" />
<glyph unicode="&#x09;" horiz-adv-x="569" />
<glyph unicode="&#xa0;" horiz-adv-x="569" />
<glyph unicode="!" horiz-adv-x="684" d="M367 371h-50q0 137 -14 331q-9 157 -43 281.5t-115 224.5q75 38 127.5 103t69.5 147q17 -82 69.5 -147t127.5 -103q-81 -100 -115 -224.5t-43 -281.5q-14 -194 -14 -331zM176 141q0 69 48.5 117.5t117.5 48.5t117.5 -48.5t48.5 -117.5t-48.5 -117.5t-117.5 -48.5 t-117.5 48.5t-48.5 117.5z" />
<glyph unicode="&#x22;" horiz-adv-x="1024" d="M262 895l-33 354q-1 11 -2.5 30t-2.5 34t-1 26q0 136 105 136q36 0 59.5 -14.5t32 -40.5t10.5 -42t2 -39q0 -11 -1 -26t-2.5 -34t-2.5 -30l-33 -354q-8 -64 -65 -64q-58 0 -66 64zM631 895l-33 354q-1 11 -2.5 30t-2.5 34t-1 26q0 23 2 39t10.5 42t32 40.5t59.5 14.5 q105 0 105 -136q0 -11 -1 -26t-2.5 -34t-2.5 -30l-33 -354q-8 -64 -66 -64q-57 0 -65 64z" />
<glyph unicode="#" d="M238 0l59 430h-197v148h219l37 286h-196v148h217l61 430h158l-59 -430h233l59 430h160l-59 -430h196v-148h-219l-37 -286h197v-148h-217l-62 -430h-157l59 430h-233l-60 -430h-159zM711 578l37 286h-232l-37 -286h232z" />
<glyph unicode="$" d="M530 944v477h-10q-118 0 -196 -69.5t-78 -175.5q0 -45 15 -80.5t38.5 -59t63 -41.5t76.5 -29t91 -22zM592 569v-549q131 3 210 77.5t79 195.5q0 64 -21 111t-64.5 78t-89 50t-114.5 37zM68 14v545h36q18 -86 52.5 -170t86 -163t126.5 -133.5t161 -67.5v561 q-93 22 -144 37t-123 49.5t-109 77t-65 115.5t-28 169q0 191 124.5 307.5t328.5 116.5h16v141h62v-147q49 -8 95 -26t74 -35t59.5 -30t58.5 -13q65 0 65 79h37v-460h-37q-18 79 -45 147t-68.5 132.5t-102.5 108t-136 58.5v-485q149 -33 238.5 -67.5t147 -90t78.5 -128 t21 -185.5q0 -201 -129 -337t-340 -136h-16v-217h-62v221q-76 13 -196 57.5t-154 44.5q-39 0 -57.5 -22t-18.5 -54h-36z" />
<glyph unicode="%" horiz-adv-x="2048" d="M1585 264v191q0 54 -3.5 93.5t-14.5 79.5t-34.5 61.5t-59.5 21.5q-35 0 -58.5 -21.5t-35 -61.5t-15.5 -80t-4 -93v-191q0 -53 4 -93t15.5 -80t35 -61.5t58.5 -21.5q36 0 59.5 21.5t34.5 61.5t14.5 79.5t3.5 93.5zM1538 1475l-948 -1508h-92l948 1508h92zM688 987v191 q0 53 -4 93t-15 80t-34.5 61.5t-59.5 21.5q-35 0 -58.5 -21.5t-34.5 -61.5t-15 -80t-4 -93v-191q0 -53 4 -93t15 -80t34.5 -61.5t58.5 -21.5q36 0 59.5 21.5t34.5 61.5t15 80t4 93zM1176 358q0 169 73 273t224 104t223.5 -104t72.5 -273q0 -167 -72.5 -270.5t-223.5 -103.5 t-224 103.5t-73 270.5zM279 1081q0 169 72.5 273t223.5 104t224 -104t73 -273q0 -167 -73 -270.5t-224 -103.5t-223.5 103.5t-72.5 270.5z" />
<glyph unicode="&#x26;" horiz-adv-x="1708" d="M588 1200q0 -34 17.5 -80t37 -79t51 -82.5t41.5 -67.5q180 113 180 254q0 97 -46.5 149t-135.5 52q-65 0 -105 -41t-40 -105zM762 860l268 -358q80 132 151.5 194t174.5 62q63 0 109 -47t46 -113q0 -67 -36.5 -113.5t-100.5 -46.5q-60 0 -96.5 36t-36.5 89q0 14 3 32.5 t3 25.5q0 12 -10.5 19t-26.5 7q-22 0 -51 -33t-63.5 -87t-38.5 -60q122 -153 202.5 -228t139.5 -75q69 0 108 45t68 123l27 -13q-20 -69 -48.5 -127t-70 -111t-101.5 -83.5t-131 -30.5q-87 0 -161.5 55t-200.5 203q-109 -135 -204.5 -196.5t-213.5 -61.5q-91 0 -169 54 t-121.5 138.5t-43.5 174.5q0 81 45 151.5t119 128t207 138.5q-141 192 -141 338q0 136 101 220.5t245 84.5q120 0 186 -61t66 -173q0 -53 -14.5 -96.5t-46 -80.5t-62 -62.5t-80.5 -61.5zM864 258l-334 461q-14 -11 -45.5 -33.5t-41.5 -31t-29 -28t-25 -36t-12 -43t-6 -60.5 q0 -49 29 -110.5t73.5 -113.5t102.5 -88t110 -36q55 0 101 34t77 85z" />
<glyph unicode="'" horiz-adv-x="569" d="M383 1249l-33 -354q-8 -64 -65 -64q-58 0 -66 64l-33 354q-1 11 -2.5 30t-2.5 34t-1 26q0 136 105 136q36 0 59.5 -14.5t32 -40.5t10.5 -42t2 -39q0 -11 -1 -26t-2.5 -34t-2.5 -30z" />
<glyph unicode="(" horiz-adv-x="681" d="M668 -436l-76 -78q-187 198 -287 465t-100 551t100 551t287 465l76 -78q-158 -170 -249 -420t-91 -518t91 -518t249 -420z" />
<glyph unicode=")" horiz-adv-x="681" d="M14 1440l76 78q187 -198 287 -465t100 -551t-100 -551t-287 -465l-76 78q158 170 249 420t91 518t-91 518t-249 420z" />
<glyph unicode="*" d="M1024 1059q0 -14 -15.5 -24.5t-33.5 -16t-33.5 -16t-15.5 -25.5q0 -16 14 -39.5t14 -32.5q0 -11 -5 -16.5t-19 -5.5q-6 0 -34.5 15.5t-68 31t-105 24t-144.5 -5.5q34 -56 76 -98t77 -63.5t65.5 -36.5t48 -26t17.5 -22q0 -17 -37 -24.5t-37 -20.5q0 -5 6.5 -41.5t4 -60 t-20.5 -23.5q-20 0 -39.5 18.5t-34.5 37t-26 18.5q-13 0 -36 -23.5t-32 -23.5q-18 0 -18 25q0 11 5 57.5t6.5 84t-12.5 96.5t-46 112q-58 -69 -85.5 -130t-35.5 -138q-3 -57 -13 -68q-5 -6 -14 -6q-17 0 -31.5 28.5t-27.5 28.5q-17 0 -52.5 -22.5t-49.5 -22.5q-19 0 -23 27 q0 8 20.5 46t20.5 60q0 8 -10.5 14t-22.5 9.5t-22.5 11.5t-10.5 19q0 24 64 24q65 4 140.5 45t129.5 98q-94 41 -198 41q-45 0 -96 -9t-58 -9q-11 0 -18 8t-7 19q0 6 20.5 26t20.5 37t-35.5 46t-35.5 40q0 17 10 22t31 5q8 -1 33.5 -8t39.5 -7q16 0 19.5 12.5t3.5 41.5 q0 11 8 19.5t21 8.5q7 0 12.5 -5t11.5 -15.5t10.5 -20t12 -27t12.5 -28.5q26 -52 81.5 -98t117.5 -68q9 74 -3 139.5t-31.5 102t-36.5 66t-17 38.5q0 25 20 25q11 0 28.5 -10.5t30.5 -10.5q20 0 41 51.5t41 51.5q18 0 23.5 -17.5t8.5 -49.5t13 -52q7 -9 14 -7t22 8.5t24 6.5 q26 0 26 -24q0 -9 -21 -30t-48 -50t-57.5 -94.5t-45.5 -151.5q83 23 146 58.5t91 65t48 51.5t29 22q22 0 22 -19q0 -5 -5 -22.5t-5 -30.5q0 -27 33 -27q46 7 70 4.5t24 -24.5z" />
<glyph unicode="+" horiz-adv-x="1228" d="M528 604v432h172v-432h433v-172h-433v-432h-172v432h-432v172h432z" />
<glyph unicode="," horiz-adv-x="569" d="M147 -336v35q122 26 193.5 118.5t73.5 219.5h-4q-52 -62 -136 -62q-76 6 -115.5 50.5t-39.5 115.5q0 67 47.5 116.5t116.5 49.5q85 0 132.5 -61t47.5 -168q0 -163 -82.5 -274t-233.5 -140z" />
<glyph unicode="-" horiz-adv-x="909" d="M799 612l-76 -188q-38 1 -155.5 4.5t-182.5 3.5q-53 0 -148 -3.5t-126 -4.5l75 188q141 -8 322 -8q99 0 291 8z" />
<glyph unicode="." horiz-adv-x="569" d="M119 141q0 69 48.5 117.5t117.5 48.5t117.5 -48.5t48.5 -117.5t-48.5 -117.5t-117.5 -48.5t-117.5 48.5t-48.5 117.5z" />
<glyph unicode="/" horiz-adv-x="796" d="M29 -33l565 1508h174l-565 -1508h-174z" />
<glyph unicode="0" d="M1063 721q0 -150 -31.5 -275.5t-82.5 -209t-116.5 -142t-132.5 -84.5t-131 -26t-130.5 26t-132 84.5t-116.5 142t-82.5 209t-31.5 275.5t31.5 275.5t82.5 209t116.5 142t132 84.5t130.5 26t131 -26t132.5 -84.5t116.5 -142t82.5 -209t31.5 -275.5zM371 954v-467v-70 t1.5 -66.5t4 -67t7 -60t12 -57.5t18 -47.5t25 -42t33.5 -29.5t43.5 -21t53.5 -6q48 0 83.5 16.5t56.5 55t34 73.5t18 100.5t6 105t1 116.5v467q0 77 -1 116.5t-6 105t-18 100.5t-34 73.5t-56.5 55t-83.5 16.5q-29 0 -53.5 -6t-43.5 -21t-33.5 -29.5t-25 -42t-18 -47.5 t-12 -57.5t-7 -60t-4 -67t-1.5 -66.5v-70z" />
<glyph unicode="1" d="M272 0v37h207v1048q0 50 -12.5 68t-50.5 18q-36 0 -109 -41l-168 -90l-18 39q402 231 512 363h141v-1405h189v-37h-691z" />
<glyph unicode="2" d="M57 0l23 51q52 118 137 203q48 56 128 128.5t141 129.5t121.5 131t94 167t33.5 202q0 69 -6.5 124.5t-25 110.5t-49 92t-81.5 59.5t-120 22.5q-60 0 -125.5 -28t-113.5 -82.5t-48 -118.5q0 -21 6.5 -32.5t20 -15t25.5 -3.5t32 2t31 2q58 0 95.5 -37t37.5 -94 q0 -69 -46 -104.5t-116 -35.5q-93 0 -138.5 63.5t-45.5 158.5q0 162 124 262t302 100q103 0 198 -29t171 -83t121.5 -140.5t45.5 -193.5q0 -113 -37 -200t-94.5 -140t-139 -103t-159.5 -86.5t-166.5 -93t-150.5 -119.5h702l35 199h33q-47 -185 -56 -469h-940z" />
<glyph unicode="3" d="M258 780v37h137q90 0 148 19.5t90.5 62t44.5 99.5t12 143q0 143 -46.5 211.5t-162.5 68.5q-42 0 -94.5 -14.5t-93.5 -42.5t-41 -59q0 -12 7.5 -19t16.5 -9.5t27 -4.5q51 -6 88 -37t37 -98t-40 -107.5t-105 -40.5q-69 0 -109.5 50.5t-40.5 119.5q0 62 23.5 113.5t61.5 85 t89 57t104.5 33.5t108.5 10q61 0 124 -13.5t122 -41.5t105 -66t74 -92t28 -115q0 -65 -26.5 -119t-68.5 -89t-98 -60t-110 -37t-109 -16v-4q202 0 334.5 -104t132.5 -289q0 -92 -33 -166t-86.5 -122t-125.5 -80.5t-146 -46t-152 -13.5q-428 0 -428 295q0 74 45 128t119 54 q63 0 105.5 -43t42.5 -105q0 -67 -39 -107t-105 -40q-14 0 -21.5 -1t-15.5 -8t-8 -20q0 -40 48.5 -68t106.5 -38.5t114 -10.5t100 12t73.5 30.5t50.5 50.5t32.5 62.5t18 76.5t8 83t1.5 91q0 101 -13 164t-48 108t-96.5 63.5t-159.5 18.5h-158z" />
<glyph unicode="4" d="M422 0v37h201v356h-574v90l707 959h137v-830h164v-219h-164v-356h197v-37h-668zM623 614v566h-5l-407 -566h412z" />
<glyph unicode="5" d="M188 702l-28 7q78 249 78 465q0 91 -23 260q98 24 262 24q77 0 159.5 -15t139.5 -30.5t72 -15.5q58 0 78 51l24 -10q-6 -144 -83 -203t-230 -59q-57 0 -165.5 18t-133.5 18q-28 0 -64 -10q3 -66 -10 -178t-31 -174l5 -4q39 34 113 57t151 23q103 0 199.5 -30t175 -85.5 t125.5 -143t47 -194.5q0 -115 -50.5 -209.5t-133.5 -154.5t-186.5 -92.5t-213.5 -32.5q-167 0 -287.5 86t-120.5 221q0 75 41 130.5t113 55.5q67 0 104 -39t37 -98q0 -58 -36.5 -95.5t-90.5 -37.5q-45 0 -45 -53q0 -39 82.5 -86.5t179.5 -47.5q76 0 132 27t87.5 68.5 t50 104.5t24 120t5.5 129q0 71 -15.5 139.5t-48 130.5t-90.5 100t-134 38q-199 0 -265 -175z" />
<glyph unicode="6" d="M772 418q0 242 -40 337t-148 95q-94 0 -149.5 -96t-55.5 -262q0 -73 2 -124.5t8.5 -110t20 -97.5t34.5 -73t54 -50.5t77 -16.5q112 0 154.5 88t42.5 310zM971 1458v-37q-94 -3 -179.5 -28.5t-160 -72.5t-128 -124t-75.5 -176q-25 -109 -33 -252h4q31 73 101.5 108 t161.5 35q165 0 279 -125t114 -311q0 -112 -42 -206.5t-110 -155.5t-152 -95t-171 -34q-148 0 -263 77.5t-174 202t-59 271.5q0 183 76.5 355t199.5 295.5t284.5 198t326.5 74.5z" />
<glyph unicode="7" d="M1071 1442v-62q-58 -92 -136 -227.5t-172.5 -310t-158 -328t-63.5 -223.5q0 -20 13 -28.5t48 -8.5q51 0 83 -36t32 -93q0 -65 -37 -103t-105 -38q-75 0 -110 45t-35 114t52.5 208t116 275t121.5 292t66 253h-641l-41 -153h-36q48 154 71 424h932z" />
<glyph unicode="8" d="M1001 1130q0 -60 -22 -112.5t-58 -90.5t-85.5 -69t-101 -50.5t-107.5 -31.5v-4q69 -13 128.5 -33t116.5 -52.5t97.5 -74.5t65 -100.5t24.5 -128.5q0 -99 -44.5 -178t-117 -125.5t-156.5 -71t-172 -24.5q-69 0 -137 14.5t-132 46.5t-112.5 78t-78 113t-29.5 147 q0 70 24.5 128.5t65 100.5t97.5 74.5t116.5 52.5t128.5 33v4q-71 16 -134.5 43.5t-119 69.5t-88.5 104.5t-33 136.5q0 79 37 143t98.5 103.5t138 60.5t158.5 21t158.5 -21t138 -60.5t98.5 -103.5t37 -143zM764 274v191q0 101 -50.5 180.5t-144.5 106.5q-94 -27 -144 -106.5 t-50 -180.5v-191q0 -120 49 -187t145 -67t145.5 67t49.5 187zM731 1028v197q0 196 -162 196q-161 0 -161 -196v-197q0 -98 36 -150.5t125 -89.5q89 37 125.5 89.5t36.5 150.5z" />
<glyph unicode="9" d="M367 1024q0 -242 40 -337t148 -95q94 0 149.5 96t55.5 262q0 72 -2 124t-9 110.5t-20.5 97.5t-34.5 72.5t-54 50t-77 16.5q-111 0 -153.5 -87.5t-42.5 -309.5zM168 -16v36q94 3 179.5 28.5t160 73t128 124.5t75.5 176q24 104 32 252h-4q-31 -73 -101.5 -108.5 t-160.5 -35.5q-165 0 -279 125.5t-114 311.5q0 112 42 206.5t110 155.5t152 95t171 34q148 0 263 -77.5t174 -202t59 -271.5q0 -183 -76.5 -355t-199.5 -295.5t-284.5 -198t-326.5 -74.5z" />
<glyph unicode=":" horiz-adv-x="569" d="M119 735q0 69 48.5 117.5t117.5 48.5t117.5 -48.5t48.5 -117.5t-48.5 -117.5t-117.5 -48.5t-117.5 48.5t-48.5 117.5zM119 141q0 69 48.5 117.5t117.5 48.5t117.5 -48.5t48.5 -117.5t-48.5 -117.5t-117.5 -48.5t-117.5 48.5t-48.5 117.5z" />
<glyph unicode=";" horiz-adv-x="569" d="M147 -336v35q122 26 193.5 118.5t73.5 219.5h-4q-52 -62 -136 -62q-75 0 -115 46.5t-40 119.5q0 67 47.5 116.5t116.5 49.5q85 0 132.5 -61t47.5 -168q0 -163 -82.5 -274t-233.5 -140zM119 735q0 69 48.5 117.5t117.5 48.5t117.5 -48.5t48.5 -117.5t-48.5 -117.5 t-117.5 -48.5t-117.5 48.5t-48.5 117.5z" />
<glyph unicode="&#x3c;" horiz-adv-x="1228" d="M1133 1053v-181l-805 -354l805 -354v-180l-1037 456v156z" />
<glyph unicode="=" horiz-adv-x="1228" d="M1133 813v-172h-1037v172h1037zM1133 395v-172h-1037v172h1037z" />
<glyph unicode="&#x3e;" horiz-adv-x="1228" d="M96 -16v180l805 354l-805 354v181l1037 -457v-156z" />
<glyph unicode="?" d="M440 365v307q0 77 15 118.5t63 77.5q108 80 154 129q94 99 94 195q0 100 -63 164.5t-158 64.5q-77 0 -136 -26.5t-59 -73.5q0 -14 10 -21t21.5 -8.5t30.5 -1.5q55 0 92 -40.5t37 -102.5q0 -65 -46 -102t-112 -37q-76 0 -122 54t-46 132q0 53 20 97t53.5 74.5t78 51.5 t93.5 31t101 10q165 0 265 -106t100 -271q0 -73 -25 -138t-64.5 -113.5t-87 -93t-95.5 -83t-87.5 -76t-64.5 -80.5t-25 -87v-45h-37zM303 141q0 69 48.5 117.5t117.5 48.5t117.5 -48.5t48.5 -117.5t-48.5 -117.5t-117.5 -48.5t-117.5 48.5t-48.5 117.5z" />
<glyph unicode="@" horiz-adv-x="1638" d="M702 604q-1 -84 33.5 -131t83.5 -47q55 0 103 46.5t77 115t45.5 139.5t16.5 127q0 70 -20 103.5t-66 33.5q-38 0 -85 -28.5t-89 -77t-70.5 -123.5t-28.5 -158zM1106 995l18 74h156l-127 -506q-12 -49 -12 -74q0 -40 19.5 -65t53.5 -25q67 0 126.5 69t93 170.5t32.5 201.5 q0 74 -22.5 147.5t-70.5 141.5t-114.5 120.5t-161 83.5t-204.5 31q-96 0 -183 -25t-163.5 -79.5t-132 -133.5t-87.5 -194t-32 -254q0 -122 45.5 -231.5t123 -187.5t186 -123.5t229.5 -45.5q134 0 232.5 24.5t193.5 78.5l18 -74q-95 -73 -225 -112.5t-275 -39.5 q-171 0 -314.5 59.5t-237.5 159.5t-145.5 228.5t-51.5 269.5q0 175 63 325t169 251t246.5 158t295.5 57q152 0 285.5 -48.5t228 -132t149 -201t54.5 -251.5q0 -120 -50 -241t-143 -204.5t-201 -83.5q-44 0 -81.5 19.5t-58.5 46.5t-32.5 50.5t-11.5 37.5h-4 q-20 -40 -91.5 -93.5t-154.5 -58.5q-24 -1 -49 4.5t-54 23.5t-51.5 46t-37.5 77.5t-15 113.5q0 52 17 118.5t52 137.5t82 130.5t114 97.5t141 38q111 0 166 -107h4z" />
<glyph unicode="A" horiz-adv-x="1366" d="M23 0v37h26q55 4 86.5 35.5t52.5 87.5l476 1315h30l549 -1438h100v-37h-610v37h164l-149 426h-398l-98 -289q-14 -37 -14 -61q0 -76 98 -76h57v-37h-370zM367 500h364l-178 518h-4z" />
<glyph unicode="B" horiz-adv-x="1366" d="M74 0v37h137v1368h-137v37h653q89 0 171.5 -20.5t152 -60t111.5 -106.5t42 -153q0 -63 -25 -116.5t-66 -89.5t-96.5 -62.5t-113 -40.5t-119.5 -19v-4q219 0 360.5 -99.5t141.5 -277.5q0 -175 -152 -284t-429 -109h-631zM530 741v-704h95q159 0 238 85t79 269 q0 164 -75.5 257t-211.5 93h-125zM530 1405v-627h111q104 0 180 72t76 217q0 177 -63 257.5t-195 80.5h-109z" />
<glyph unicode="C" horiz-adv-x="1366" d="M1239 1432v-484h-37q-13 80 -51 165t-93.5 158t-134 120t-161.5 47q-80 0 -139.5 -39t-103 -123t-65.5 -223t-22 -332q0 -377 75.5 -547t248.5 -170q94 0 176 43t136 109.5t88 138t46 137.5l12 70h31v-502h-31q-8 31 -27 57.5t-48 26.5q-20 0 -57 -18.5t-77 -40t-113 -40 t-157 -18.5q-118 0 -222.5 40.5t-181 110.5t-132 162.5t-83.5 199t-28 216.5t29 221t87.5 211t138 177.5t188.5 123.5t231 46q63 0 138 -26.5t138 -52.5t97 -26q64 0 67 62h37z" />
<glyph unicode="D" horiz-adv-x="1593" d="M72 0v37h166v1368h-166v37h706q214 0 378 -87.5t256.5 -254t92.5 -389.5q0 -58 -10 -120.5t-34.5 -133t-61 -135t-94 -124t-129 -103t-171 -69.5t-214.5 -26h-719zM557 1405v-1368h170q66 0 120.5 12.5t96 33t74 54.5t55.5 70t39 86t25.5 96.5t15 107.5t7 113t1.5 119 q0 94 -3 161.5t-12.5 143t-27 127t-48 101t-73 78.5t-103.5 47t-140 18h-197z" />
<glyph unicode="E" horiz-adv-x="1366" d="M45 0v37h166v1368h-166v37h1145v-408h-37v29q0 146 -102 244t-279 98h-242v-627h142q102 0 152 64t50 207v22h37v-647h-37v47q0 115 -53 192.5t-149 77.5h-142v-704h295q69 0 127 16t96.5 41.5t68.5 61t47.5 71.5t28 76t14 70t3.5 59v29h37v-461h-1202z" />
<glyph unicode="F" horiz-adv-x="1251" d="M55 0v37h166v1368h-166v37h1168v-408h-37v33q0 142 -115.5 240t-322.5 98h-207v-627h116q261 0 261 256v37h36v-647h-36v37q0 144 -67 212t-216 68h-94v-704h204v-37h-690z" />
<glyph unicode="G" horiz-adv-x="1478" d="M1313 451v-310q-211 -174 -541 -174q-139 0 -264.5 54.5t-218 149.5t-147 232t-54.5 293q0 224 89.5 403.5t240 277.5t330.5 98q82 0 169 -27.5t148 -54.5t80 -27q61 0 61 66h37v-471h-37q-9 74 -32 142.5t-61.5 130t-88.5 106.5t-117.5 71.5t-144.5 26.5 q-92 0 -157.5 -52.5t-102.5 -152t-53.5 -224.5t-16.5 -288q0 -186 17 -318.5t44 -209.5t72 -120t90.5 -56t110.5 -13q107 0 173.5 55t66.5 164v228h-152v36h578v-36h-119z" />
<glyph unicode="H" horiz-adv-x="1593" d="M45 0v37h166v1368h-166v37h651v-37h-166v-627h533v627h-166v37h651v-37h-166v-1368h166v-37h-651v37h166v704h-533v-704h166v-37h-651z" />
<glyph unicode="I" horiz-adv-x="798" d="M74 0v37h166v1368h-166v37h651v-37h-166v-1368h166v-37h-651z" />
<glyph unicode="J" horiz-adv-x="909" d="M145 1405v37h691v-37h-166v-1231q0 -137 -112 -243.5t-271 -106.5q-123 0 -199 64t-76 139q0 64 39 109.5t103 45.5q57 0 93 -35.5t36 -91.5q0 -41 -18.5 -68t-41 -36t-41 -19.5t-18.5 -21.5q0 -21 32.5 -35t75.5 -14q75 0 109.5 44t34.5 132q0 63 -33 149.5t-33 169.5 v1049h-205z" />
<glyph unicode="K" horiz-adv-x="1593" d="M74 0v37h166v1368h-166v37h671v-37h-186v-637l467 467q92 88 92 125q0 45 -106 45h-37v37h524v-37h-53q-174 0 -336 -158l-293 -291l604 -919h148v-37h-686v37h159l-452 702l-31 -28v-674h174v-37h-659z" />
<glyph unicode="L" horiz-adv-x="1366" d="M55 0v37h166v1368h-166v37h670v-37h-184v-1368h235q106 0 185 20.5t128 56t79 89.5t41.5 113t11.5 135v41h36v-492h-1202z" />
<glyph unicode="M" horiz-adv-x="1820" d="M45 0v37h8q49 0 82 14.5t48.5 41.5t21.5 55t6 65v1192h-156v37h525l340 -989h4l346 989h493v-37h-153v-1368h153v-37h-649v37h176v1331h-4l-477 -1368h-55l-490 1393h-4v-1162q0 -82 16.5 -124.5t47 -56t90.5 -13.5h28v-37h-397z" />
<glyph unicode="N" horiz-adv-x="1478" d="M33 0v37h14h23q56 0 89.5 31t33.5 116v1100l-91 121h-63v37h422l772 -993h4v839q0 117 -139 117h-39v37h387v-37h-29q-64 0 -97.5 -34t-33.5 -77v-1319h-86l-954 1246h-4v-1047q0 -84 34 -110.5t125 -26.5h19v-37h-387z" />
<glyph unicode="O" horiz-adv-x="1478" d="M88 721q0 150 48 287t132 240.5t207 165t264 61.5t264.5 -61.5t207.5 -165t132 -240.5t48 -287q3 -141 -48 -279t-138.5 -242t-210.5 -168.5t-255 -64.5t-255 64.5t-210 168.5t-138 242t-48 279zM739 4q177 0 242.5 159.5t65.5 557.5q0 135 -9 243t-24 182.5t-39 128.5 t-48.5 85t-58 49t-62.5 23.5t-67 5.5t-67 -5.5t-62.5 -23.5t-58 -49t-48 -85t-38.5 -128.5t-24 -182.5t-9 -243q0 -398 65 -557.5t242 -159.5z" />
<glyph unicode="P" horiz-adv-x="1366" d="M541 1405v-711q42 -10 86 -10q180 0 261 88t81 272q0 83 -6 138t-22.5 100.5t-46 71t-75 38.5t-112.5 13h-166zM55 0v37h166v1368h-166v37h731q527 0 527 -385q0 -121 -73.5 -215.5t-198.5 -144.5t-279 -50q-140 0 -221 8v-618h202v-37h-688z" />
<glyph unicode="Q" horiz-adv-x="1478" d="M874 -12v-193q0 -192 156 -192q33 0 84 13t86 34l14 -35q-65 -33 -129 -47t-167 -14q-35 0 -75 6.5t-85.5 23.5t-81.5 43t-60 68.5t-24 95.5v197q-144 41 -261 152t-181.5 264.5t-61.5 316.5q0 150 48 287t132 240.5t207 165t264 61.5t264.5 -61.5t207.5 -165t132 -240.5 t48 -287q3 -165 -63.5 -320t-186.5 -265.5t-267 -147.5zM739 4q177 0 242.5 159.5t65.5 557.5q0 135 -9 243t-24 182.5t-39 128.5t-48.5 85t-58 49t-62.5 23.5t-67 5.5t-67 -5.5t-62.5 -23.5t-58 -49t-48 -85t-38.5 -128.5t-24 -182.5t-9 -243q0 -398 65 -557.5t242 -159.5z " />
<glyph unicode="R" horiz-adv-x="1478" d="M541 1405v-637h114q174 9 234 86t55 272q0 94 -14 150.5t-49 84.5t-76.5 36t-114.5 8h-149zM55 0v37h166v1368h-166v37h643q54 0 103.5 -3t111 -11.5t112.5 -23.5t101 -41t84.5 -60.5t56 -85.5t21.5 -113q0 -71 -30.5 -129t-78.5 -95.5t-113.5 -63.5t-128.5 -38.5 t-130 -17.5v-4q226 -20 338 -109.5t115 -253.5q2 -121 7.5 -191t20.5 -106t33.5 -45.5t52.5 -9.5q30 0 74 27l14 -31q-95 -70 -250 -70q-80 0 -134.5 27t-84 80t-41.5 118.5t-12 155.5q0 99 -10.5 166t-30.5 110t-57.5 66t-81 31.5t-111.5 9.5h-108v-694h172v-37h-658z" />
<glyph unicode="S" horiz-adv-x="1251" d="M123 -2v545h37q13 -60 34 -120t51 -122t70.5 -114.5t88.5 -94t109 -65t128 -23.5q133 0 214 77.5t81 211.5q0 71 -28 122t-75 80.5t-108.5 50.5t-129 37t-135.5 34.5t-129.5 50t-108.5 75.5t-75 118t-28 173q0 202 123.5 321.5t326.5 119.5q70 0 131 -17.5t95 -38t72 -38 t67 -17.5q65 0 65 80h37v-461h-37q-17 70 -39 131t-58 122.5t-80.5 104.5t-108 70t-138.5 27q-118 0 -195 -72.5t-77 -189.5q0 -63 28.5 -107.5t76.5 -69.5t110 -42.5t131 -32t138 -32t131 -48t110 -74t76.5 -117t28.5 -170.5q0 -239 -126 -377.5t-343 -138.5 q-77 0 -166 26.5t-159.5 53.5t-102.5 27q-39 0 -57.5 -22t-18.5 -54h-37z" />
<glyph unicode="T" horiz-adv-x="1368" d="M334 0v37h190v1368h-84q-77 0 -136.5 -22t-97.5 -57.5t-65 -91t-41 -111.5t-24 -130h-37v449h1290v-449h-37q-10 74 -24 130t-41 111.5t-65 91t-97.5 57.5t-136.5 22h-84v-1368h190v-37h-700z" />
<glyph unicode="U" horiz-adv-x="1478" d="M33 1405v37h645v-37h-166v-901q0 -85 8.5 -149.5t32 -126t62.5 -101t103.5 -63t151.5 -23.5q158 0 262.5 107t104.5 307v778q0 92 -30.5 132t-106.5 40h-60v37h406v-37h-53q-56 0 -81.5 -41.5t-25.5 -130.5v-766q0 -235 -133.5 -367.5t-407.5 -132.5q-252 0 -402 137 t-150 373v928h-160z" />
<glyph unicode="V" horiz-adv-x="1478" d="M23 1405v37h688v-37h-199l381 -1024l301 817q25 73 25 131q0 76 -101 76h-53v37h391v-37h-33q-24 0 -41 -7t-39.5 -30t-48 -73.5t-55.5 -131.5l-451 -1196h-81l-539 1438h-145z" />
<glyph unicode="W" horiz-adv-x="2048" d="M174 1405h-135v37h592v-37h-123l319 -963h4l177 551l-134 412h-147v37h635v-37h-160l311 -969h5l233 735q35 107 35 148q0 86 -139 86h-15v37h377v-37h-18q-109 0 -176 -201l-414 -1237h-49l-318 959h-4l-317 -959h-51z" />
<glyph unicode="X" horiz-adv-x="1593" d="M29 0v37h32q28 0 54 6.5t44.5 13.5t41.5 26.5t35.5 30t35.5 40t31.5 41t34.5 47.5l313 442l-450 721h-148v37h684v-37h-159l270 -430l184 266q55 77 55 119q0 45 -106 45h-31v37h416v-37h-33q-69 0 -124.5 -41.5t-133.5 -153.5l-198 -284l557 -889h131v-37h-695v37h185 l-377 604l-309 -457q-37 -53 -37 -88q0 -59 117 -59h53v-37h-473z" />
<glyph unicode="Y" horiz-adv-x="1366" d="M395 0v37h158v465l-397 903h-136v37h631v-37h-147l338 -774l243 553q41 97 41 141q0 41 -27.5 60.5t-94.5 19.5h-27v37h369v-37h-15q-55 0 -94.5 -40.5t-85.5 -152.5l-279 -624v-551h158v-37h-635z" />
<glyph unicode="Z" horiz-adv-x="1366" d="M41 0v37l833 1368h-327q-175 -2 -274.5 -101.5t-120.5 -306.5h-39l28 445h1098v-37l-829 -1368h309q84 2 152.5 15t118 33.5t87 53t62 67.5t42 82.5t26.5 92.5t16 104h43l-37 -485h-1188z" />
<glyph unicode="[" horiz-adv-x="681" d="M653 -489h-387v1982h387v-74h-264v-1835h264v-73z" />
<glyph unicode="\" horiz-adv-x="796" d="M203 1475l565 -1508h-174l-565 1508h174z" />
<glyph unicode="]" horiz-adv-x="681" d="M29 1493h387v-1982h-387v73h264v1835h-264v74z" />
<glyph unicode="^" horiz-adv-x="1228" d="M379 694h-182l364 748h164l365 -748h-183l-264 563z" />
<glyph unicode="_" horiz-adv-x="1024" d="M1024 -256h-1024v102h1024v-102z" />
<glyph unicode="`" horiz-adv-x="569" d="M221 1362l150 -305h-27l-268 284q-49 52 -49 82q0 52 77 52q44 0 61 -17.5t56 -95.5z" />
<glyph unicode="a" d="M942 635v-471q0 -103 47 -103q34 0 53 35t19 80h37q0 -91 -59.5 -146t-159.5 -55q-70 0 -124 33t-81 96q-36 -66 -118 -97.5t-157 -31.5q-62 0 -117 14.5t-100.5 43.5t-72.5 78.5t-27 113.5q0 62 23.5 109.5t59.5 76.5t89.5 49t104 28.5t112.5 13.5l201 16v172 q0 51 -6 83.5t-23 61t-53 41.5t-92 13q-40 0 -80.5 -5.5t-74 -20.5t-32.5 -36q1 -11 17.5 -21t36 -18.5t35.5 -31.5t16 -56q0 -55 -33.5 -88.5t-91.5 -33.5q-66 0 -99.5 37.5t-33.5 95.5q0 88 101.5 151.5t252.5 63.5q68 0 126.5 -7.5t115.5 -28t97.5 -52.5t65.5 -84 t25 -119zM672 244v237l-162 -16q-48 -5 -78.5 -20t-44.5 -43t-18 -56.5t-4 -75.5q0 -33 1 -55t5.5 -52t14 -50t25 -38.5t40.5 -28t59 -9.5q70 0 114.5 61t47.5 146z" />
<glyph unicode="b" horiz-adv-x="1251" d="M33 0v37h141v1368h-141v37h129q93 0 137.5 2t92.5 16.5t65 44.5v-739h4q84 160 264 160q60 0 120.5 -17.5t119 -56t104 -93.5t73 -136t27.5 -177q0 -54 -17 -116t-53.5 -125t-87.5 -114t-125.5 -83.5t-160.5 -32.5q-90 0 -165.5 47.5t-108.5 133.5h-5v-181q-20 15 -86 21 q-41 4 -155 4h-172zM457 618v-315q0 -129 68 -203.5t153 -74.5q91 0 137.5 62.5t46.5 213.5v258q0 96 -13.5 163t-39 102.5t-56 50t-69.5 14.5q-97 0 -162 -88t-65 -183z" />
<glyph unicode="c" horiz-adv-x="1024" d="M82 446q0 119 69.5 230.5t187.5 180.5t249 69q55 0 114 -14t113.5 -41.5t89.5 -76t35 -108.5t-38.5 -100.5t-110.5 -40.5q-61 0 -97.5 39.5t-36.5 99.5q0 31 12 55.5t27 36t27 24t12 23.5q0 26 -40 46t-107 20q-111 0 -155 -69t-44 -238v-234q0 -133 24.5 -208 t66.5 -101.5t112 -26.5q132 0 226 82.5t106 198.5h37q-17 -143 -123 -230.5t-265 -87.5q-134 0 -246 60t-178.5 168.5t-66.5 242.5z" />
<glyph unicode="d" horiz-adv-x="1251" d="M606 1405v37h158q93 0 137.5 2t92.5 16.5t65 44.5v-1468h141v-37h-141q-211 0 -283 -25v150h-4q-39 -73 -100 -111.5t-158 -38.5q-78 0 -154.5 32.5t-138.5 89.5t-100.5 145.5t-38.5 191.5q0 133 51 243.5t151.5 179.5t233.5 69q180 0 254 -158h4v637h-170zM776 270v359 q0 94 -61.5 171t-159.5 77q-166 0 -166 -254v-295q0 -158 41 -230.5t133 -72.5q96 0 154.5 74.5t58.5 170.5z" />
<glyph unicode="e" horiz-adv-x="1024" d="M954 496h-565v-172q0 -48 3.5 -85t16.5 -79.5t34.5 -70t61.5 -46t95 -18.5q119 0 204.5 82.5t119.5 226.5h37q-36 -164 -139.5 -261.5t-282.5 -97.5q-196 0 -326.5 132.5t-130.5 332.5q0 204 133 345t317 141q105 2 203 -59t158 -162t61 -209zM389 532h258v177 q0 90 -29.5 135t-99.5 45q-129 0 -129 -180v-177z" />
<glyph unicode="f" horiz-adv-x="684" d="M457 864v-827h141v-37h-565v37h141v827h-141v37h141q0 75 13 152t44 153.5t75.5 135.5t113.5 96t153 37q94 0 158 -56t64 -139q0 -66 -35.5 -103.5t-89.5 -37.5q-57 0 -89 33t-32 81q0 26 10 49t21.5 36t21.5 27.5t10 27.5q0 45 -59 45q-56 0 -93.5 -47t-37.5 -134 q0 -59 17.5 -176t17.5 -180h155v-37h-155z" />
<glyph unicode="g" horiz-adv-x="1024" d="M281 184h340q152 3 225.5 -66.5t73.5 -217.5q0 -191 -130.5 -317t-340.5 -126q-171 0 -288.5 77.5t-117.5 191.5q0 69 54.5 126t121.5 76v4q-64 19 -98.5 73t-34.5 132q0 49 14 89t35 65t49.5 43.5t54.5 27t52 11.5v4q-82 37 -126 101.5t-44 148.5q0 89 53.5 159t134 105 t168.5 35q154 0 256 -74q78 90 158 90q52 0 95.5 -29t43.5 -79q0 -44 -27.5 -74.5t-74.5 -30.5q-43 0 -68.5 28t-25.5 66q0 32 12 52.5t43 37.5v5q-28 -4 -50.5 -14.5t-32.5 -20.5t-27 -30t-25 -28q41 -35 64.5 -94.5t23.5 -112.5q0 -70 -32 -127.5t-84.5 -93t-117 -54.5 t-131.5 -19q-47 0 -84 12q-46 12 -67 12q-59 0 -112.5 -34t-53.5 -72q0 -19 11 -32t31.5 -18t37.5 -6.5t41 -1.5zM573 -74h-321q-86 -92 -86 -209q3 -83 82 -153t207 -70q155 0 273 88t118 201q0 90 -56 116.5t-217 26.5zM479 360q26 0 42 3.5t34.5 18t28 42.5t16.5 78.5 t8 124.5q-1 72 -5.5 118t-12.5 75.5t-25 44t-35.5 19.5t-50.5 5q-75 0 -100 -60t-25 -196q0 -73 5.5 -123t14.5 -79.5t26 -45t34.5 -20.5t44.5 -5z" />
<glyph unicode="h" horiz-adv-x="1251" d="M33 0v37h141v1368h-141v37h129q93 0 137.5 2t92.5 16t65 43v-768h4q40 88 131 139.5t196 51.5q147 0 218 -76.5t71 -241.5v-571h142v-37h-541v37h117v647q0 97 -33.5 132.5t-87.5 35.5q-82 0 -149.5 -85.5t-67.5 -168.5v-561h121v-37h-545z" />
<glyph unicode="i" horiz-adv-x="684" d="M59 0v37h142v827h-142v37h146q63 0 103.5 1.5t97.5 14.5t77 37v-917h142v-37h-566zM176 1268q0 69 48.5 117.5t117.5 48.5t117.5 -48.5t48.5 -117.5t-48.5 -117.5t-117.5 -48.5t-117.5 48.5t-48.5 117.5z" />
<glyph unicode="j" horiz-adv-x="684" d="M201 864h-142v37h146q63 0 103.5 1.5t97.5 14.5t77 37v-1075q0 -187 -103.5 -304.5t-246.5 -117.5q-87 0 -134.5 40t-47.5 106q0 50 35 82t82 32q54 0 85 -35.5t31 -89.5q0 -36 -30 -79q10 -7 26 -7q44 0 65 35.5t21 75.5q0 51 -16 110.5t-32.5 135t-16.5 166.5v835z M176 1268q0 69 48.5 117.5t117.5 48.5t117.5 -48.5t48.5 -117.5t-48.5 -117.5t-117.5 -48.5t-117.5 48.5t-48.5 117.5z" />
<glyph unicode="k" horiz-adv-x="1251" d="M33 0v37h141v1368h-141v37h129q93 0 137.5 2t92.5 16.5t65 44.5v-1020l219 174q168 134 168 170q0 35 -88 35h-51v37h446v-37h-21q-67 0 -117 -20.5t-118 -69.5l-174 -127l383 -610h123v-37h-572v37h123l-264 446l-57 -43v-403h106v-37h-530z" />
<glyph unicode="l" horiz-adv-x="684" d="M59 0v37h142v1368h-142v37h129q93 0 137.5 2t92.5 16t65 43v-1466h142v-37h-566z" />
<glyph unicode="m" horiz-adv-x="1818" d="M174 37v827h-141v37h145q64 0 104.5 1.5t97.5 14.5t77 37v-219h4q40 88 131 139.5t196 51.5q93 0 164 -48.5t99 -142.5q51 91 137 141t190 50q267 0 267 -318v-571h141v-37h-533v37h109v633q0 96 -20.5 139t-75.5 43q-60 0 -111.5 -45t-77.5 -102.5t-26 -106.5v-561h112 v-37h-510v37h115v633q0 96 -20.5 139t-75.5 43q-60 0 -111.5 -45t-77.5 -102.5t-26 -106.5v-561h106v-37h-530v37h141z" />
<glyph unicode="n" horiz-adv-x="1251" d="M33 0v37h141v827h-141v37h145q64 0 104.5 1.5t97.5 14.5t77 37v-219h4q40 88 131 139.5t196 51.5q147 0 218 -76.5t71 -241.5v-571h142v-37h-541v37h117v647q0 97 -33.5 132.5t-87.5 35.5q-82 0 -149.5 -85.5t-67.5 -168.5v-561h121v-37h-545z" />
<glyph unicode="o" d="M82 451q0 137 65.5 246.5t176.5 169t245 59.5t245.5 -59.5t177 -169t65.5 -246.5t-65.5 -247t-177 -169.5t-245.5 -59.5t-245 59.5t-176.5 169.5t-65.5 247zM401 672v-443q0 -217 168 -217t168 217v443q0 217 -168 217t-168 -217z" />
<glyph unicode="p" horiz-adv-x="1251" d="M33 -543v37h141v1370h-141v37h129q132 0 201 11.5t94 52.5v-197h4q80 158 254 158q133 0 233.5 -69t151.5 -179.5t51 -243.5q0 -103 -38.5 -191.5t-100.5 -145.5t-138.5 -89.5t-154.5 -32.5q-97 0 -158 38.5t-100 111.5h-4v-631h155v-37h-579zM844 311v332 q0 109 -43 171.5t-123 62.5q-98 0 -159.5 -77t-61.5 -171v-359q0 -96 58.5 -170.5t154.5 -74.5q87 0 130.5 69t43.5 217z" />
<glyph unicode="q" horiz-adv-x="1251" d="M1200 -506v-37h-579v37h155v631h-4q-39 -73 -100 -111.5t-158 -38.5q-78 0 -154.5 32.5t-138.5 89.5t-100.5 145.5t-38.5 191.5q0 133 51 243.5t151.5 179.5t233.5 69q174 0 254 -158h4v197q25 -41 94 -52.5t201 -11.5h129v-37h-141v-1370h141zM389 643v-332 q0 -148 43.5 -217t130.5 -69q96 0 154.5 74.5t58.5 170.5v359q0 94 -61.5 171t-159.5 77q-80 0 -123 -62.5t-43 -171.5z" />
<glyph unicode="r" horiz-adv-x="909" d="M33 0v37h141v827h-141v37h141q64 0 104.5 1.5t97.5 14.5t77 37v-209h4q31 82 103.5 137.5t166.5 55.5q73 0 117.5 -42.5t44.5 -115.5q0 -61 -42.5 -105t-113.5 -44q-61 0 -100 37t-39 96q0 69 49 121h-8q-94 -42 -136 -122.5t-42 -203.5v-522h188v-37h-612z" />
<glyph unicode="s" horiz-adv-x="909" d="M119 -25v344h37q30 -121 119 -214t200 -93q86 0 143.5 48t57.5 128q0 66 -44 89t-165 38q-45 5 -70 8.5t-68 13.5t-68.5 22.5t-57.5 35.5t-49.5 53t-30 74t-12.5 99q0 51 19.5 103.5t55.5 98t96.5 74.5t133.5 29q50 0 117 -22.5t96 -22.5t46 13t17 32h31l12 -291h-33 q-97 254 -286 254q-85 0 -140 -41.5t-55 -112.5q0 -62 44 -86.5t143 -38.5q166 -23 224 -44q117 -40 150 -139q17 -49 17 -116q0 -132 -93.5 -234t-234.5 -102q-65 0 -138.5 25t-92.5 25q-69 0 -84 -50h-37z" />
<glyph unicode="t" horiz-adv-x="684" d="M164 864h-109v37q100 0 183 65t127.5 165.5t44.5 209.5h36v-440h189v-37h-189v-696q0 -107 80 -107q24 0 46.5 15.5t33.5 30t29 40.5l27 -14q-94 -158 -273 -158q-20 0 -45.5 5.5t-58 21.5t-59 40.5t-44.5 68t-18 98.5v655z" />
<glyph unicode="u" horiz-adv-x="1251" d="M653 864v37h146q63 0 103.5 1.5t97.5 14.5t77 37v-917h142v-37h-424v172h-4q-40 -91 -131 -144t-197 -53q-147 0 -218 76.5t-71 241.5v571h-141v37h145q64 0 104.5 1.5t97.5 14.5t77 37v-712q0 -99 24.5 -146t93.5 -47q84 0 152 91.5t68 191.5v532h-142z" />
<glyph unicode="v" horiz-adv-x="1024" d="M489 -25l-385 889h-88v37h514v-37h-122l239 -538l139 327q35 80 35 135q0 76 -94 76h-39v37h320v-37h-19q-35 -1 -68.5 -43t-72.5 -129l-303 -717h-56z" />
<glyph unicode="w" horiz-adv-x="1593" d="M575 901h500v-37h-123l236 -559l137 318q45 115 45 168q0 73 -108 73h-31v37h319v-37h-20q-54 0 -96 -92l-349 -797h-55l-248 594l-258 -594h-55l-365 889h-86v37h498v-37h-123l234 -565l137 313l-102 252h-87v37z" />
<glyph unicode="x" d="M33 901h534v-37h-110l176 -264l67 84q66 80 66 125q0 24 -22 38.5t-54 16.5h-45v37h369v-37h-45q-19 0 -36 -4.5t-28 -10t-26.5 -19t-22.5 -21t-25 -28t-26 -29.5l-152 -185l355 -530h98v-37h-578v37h148l-205 307l-88 -117q-66 -87 -66 -133q0 -60 101 -57h37v-37h-422 v37h22q24 0 45 3.5t41.5 14t33 17.5t33 27t28 28t31 35t30.5 35l149 182l-315 485h-98v37z" />
<glyph unicode="y" horiz-adv-x="1024" d="M16 864v37h527v-37h-135l239 -538l119 280q59 139 59 187q0 29 -24 50t-70 21h-43v37h320v-37h-17q-65 0 -131 -153l-203 -457l-106 -266l-55 -250q-6 -29 -12 -50.5t-17.5 -55.5t-28 -59t-39 -49t-54.5 -37t-71 -13q-69 0 -118.5 40.5t-49.5 102.5q0 61 35.5 100 t100.5 39q63 0 99 -34.5t36 -88.5q0 -33 -10 -69v-6q31 9 58.5 79.5t39.5 128t18 105.5l13 82l-394 911h-86z" />
<glyph unicode="z" horiz-adv-x="1024" d="M905 410v-410h-839v25l532 839h-117q-72 0 -131.5 -23.5t-95.5 -58.5t-60.5 -78.5t-34 -82t-9.5 -70.5v-27h-37v377h817v-24l-543 -840h135q78 0 145 30t110 78.5t67 108t24 119.5v37h37z" />
<glyph unicode="{" horiz-adv-x="681" d="M254 -178v418q0 112 -32 169t-124 93q92 36 124 93t32 169v418q0 98 20 160.5t65 95t101 44t144 11.5v-37q-120 -7 -163.5 -71.5t-43.5 -190.5v-389q0 -134 -33 -201t-133 -100v-4q100 -19 133 -85t33 -208v-397q0 -62 8.5 -105.5t31 -79.5t64 -55t103.5 -23v-36 q-88 0 -144 11.5t-101 44t-65 95t-20 160.5z" />
<glyph unicode="|" horiz-adv-x="454" d="M141 -512v2048h172v-2048h-172z" />
<glyph unicode="}" horiz-adv-x="681" d="M428 1182v-418q0 -112 32 -169t124 -93q-91 -29 -123.5 -89t-32.5 -173v-418q0 -98 -20 -160.5t-65 -95t-101 -44t-144 -11.5v36q62 4 103.5 23t64 55t31 79.5t8.5 105.5v397q0 128 33 193.5t133 97.5v4q-100 21 -133 87t-33 208v397q0 126 -43.5 190.5t-163.5 71.5v37 q88 0 144 -11.5t101 -44t65 -95t20 -160.5z" />
<glyph unicode="~" horiz-adv-x="1228" d="M215 358l-74 138q31 44 50 67t54.5 54.5t79 46t97.5 14.5q42 0 84.5 -12t70 -25.5t66.5 -36.5q43 -25 65.5 -37t60.5 -24.5t73 -12.5q61 0 101 41t71 107l73 -141q-61 -83 -98 -113q-77 -66 -182 -66q-40 0 -81 12t-66 25t-64 37q-41 25 -63.5 37t-60.5 24.5t-73 12.5 q-114 0 -184 -148z" />
<glyph unicode="&#xa1;" horiz-adv-x="684" d="M317 545h50q0 -138 14 -332q9 -157 43 -281.5t115 -224.5q-75 -38 -127.5 -103t-69.5 -147q-17 82 -69.5 147t-127.5 103q81 100 115 224.5t43 281.5q14 194 14 332zM508 774q0 -69 -48.5 -117.5t-117.5 -48.5t-117.5 48.5t-48.5 117.5t48.5 117.5t117.5 48.5 t117.5 -48.5t48.5 -117.5z" />
<glyph unicode="&#xa2;" d="M600 -170v156q-190 14 -318 143t-128 317q0 110 59.5 214t163 174.5t223.5 85.5v135h62v-129q55 0 113 -14t112.5 -41.5t89.5 -76t35 -108.5q0 -64 -36 -102.5t-114 -38.5q-61 0 -97 39.5t-36 99.5q0 31 12 55.5t27 36t27 24t12 23.5q0 26 -39.5 46t-105.5 20v-871 q133 1 227 84t106 199h37q-17 -141 -117 -227.5t-253 -89.5v-154h-62zM600 27v856q-72 -18 -105.5 -81.5t-33.5 -191.5v-280q0 -143 34 -213.5t105 -89.5z" />
<glyph unicode="&#xa3;" d="M86 610v62h188q-40 89 -60 166t-19 172q1 204 128.5 326t338.5 122q152 0 257 -84.5t105 -216.5q0 -77 -41.5 -124.5t-120.5 -47.5q-57 0 -93 38t-36 95q0 54 33.5 95.5t89.5 41.5q8 0 25.5 -2t25.5 -2q13 0 22 7t9 18q0 50 -73 91.5t-163 41.5q-109 0 -173 -74t-64 -184 q-1 -73 25 -176t55.5 -192.5t32.5 -110.5h274v-62h-262q4 -18 4 -75q0 -106 -57 -256q23 -4 92 -19t129.5 -23t126.5 -8q135 0 149 154h37q-3 -60 -13.5 -114t-34 -107t-57 -92t-86 -62.5t-116.5 -23.5q-27 0 -52 3t-51.5 13t-42.5 15.5t-45.5 23.5t-39 24t-43.5 29.5 t-41 28.5q-3 -3 -20 -24t-20 -24.5t-18 -20t-21 -20.5t-20.5 -15.5t-24.5 -14.5t-25.5 -9t-31.5 -7.5t-35 -1.5q-59 0 -104 41.5t-45 99.5q0 83 50.5 137.5t139.5 54.5q37 0 97.5 -10.5t70.5 -11.5q-10 49 -34.5 103t-59.5 117.5t-49 94.5h-213zM145 121q0 -42 25.5 -71.5 t69.5 -29.5q55 0 92.5 36t68.5 98q-87 65 -157 65q-39 0 -69 -29.5t-30 -68.5z" />
<glyph unicode="&#xa4;" d="M154 195l-107 108l119 119q-98 135 -98 299t96 297l-117 117l107 106l116 -117q134 105 305 105q163 0 299 -99l111 111l107 -106l-111 -111q102 -133 102 -303q0 -176 -104 -305l111 -111l-107 -106l-111 112q-131 -98 -297 -98q-171 0 -301 102zM240 721 q0 -140 98 -238t237 -98t237.5 98.5t98.5 237.5t-98.5 237.5t-237.5 98.5t-237 -98t-98 -238z" />
<glyph unicode="&#xa5;" d="M465 37v328h-293v49h293v121l-25 51h-268v49h246l-344 770h-135v37h561v-37h-140l338 -770h4l232 543q41 93 41 165q0 32 -30 47t-73 15h-41v37h369v-37h-29q-58 0 -100 -56t-86 -157l-244 -557h287v-49h-293v-172h293v-49h-293v-328h183v-37h-635v37h182z" />
<glyph unicode="&#xa6;" horiz-adv-x="454" d="M141 -358v716h172v-716h-172zM141 666v716h172v-716h-172z" />
<glyph unicode="&#xa7;" d="M993 -109q0 -193 -118 -313.5t-312 -120.5q-62 0 -121 15t-109 44.5t-80 79.5t-30 113q0 64 41.5 110t100.5 46q62 0 99.5 -36.5t37.5 -92.5q0 -51 -32.5 -84t-78.5 -33q-30 0 -58.5 13.5t-29.5 13.5q-18 0 -18 -23q0 -44 85.5 -86.5t184.5 -42.5q138 0 226.5 60.5 t88.5 177.5q0 48 -26 86.5t-70.5 66t-102 52t-121 48.5t-127 50.5t-121 63t-102 81.5t-70.5 110.5t-26 145.5q0 95 57 195t142 164q-44 39 -69 104t-25 133q0 116 49.5 216.5t143 163.5t210.5 63q84 0 154.5 -24t118 -79t47.5 -131q0 -74 -45 -125t-115 -51q-60 0 -97.5 36 t-37.5 93t34 93t81 36q24 0 43 -10.5t29 -22.5t21 -22.5t21 -10.5q17 0 17 39q0 49 -75.5 95.5t-201.5 46.5q-113 0 -193.5 -63t-80.5 -173q0 -56 24 -102t64.5 -77.5t93.5 -58.5t111 -50.5t116 -48t111 -55.5t93.5 -69t64.5 -93.5t24 -123.5q0 -111 -40 -195t-144 -188 q143 -83 143 -250zM948 358q0 55 -38 99t-106 78.5t-142.5 64.5t-169 75t-162.5 93q-140 -85 -140 -207q0 -55 41.5 -101.5t114.5 -82.5t149.5 -67t168.5 -71t151 -77q51 37 92 91t41 105z" />
<glyph unicode="&#xa8;" horiz-adv-x="569" d="M-23 1282q0 54 37.5 91.5t91.5 37.5t92 -37.5t38 -91.5t-38 -91.5t-92 -37.5t-91.5 37.5t-37.5 91.5zM334 1282q0 54 37.5 91.5t91.5 37.5t91.5 -37.5t37.5 -91.5t-37.5 -91.5t-91.5 -37.5t-91.5 37.5t-37.5 91.5z" />
<glyph unicode="&#xa9;" horiz-adv-x="1638" d="M1128 549h48l-33 -154q0 -5 -1.5 -9t-3.5 -6.5t-6 -6t-6.5 -5t-9 -4.5t-9.5 -4.5t-11.5 -5t-12.5 -4.5q-5 -1 -28 -7.5t-40.5 -10.5t-44 -9.5t-54.5 -8.5t-56 -3q-207 0 -329.5 108t-122.5 318q0 56 15 111.5t50.5 111t87.5 97.5t134 68t182 26q106 0 180 -27 q63 -22 73 -31q11 -11 11 -26v-149h-49q-38 184 -218 184q-126 0 -192 -96t-66 -258q0 -115 24.5 -199t85 -136.5t153.5 -52.5q90 0 153 52t96 137zM238 721q0 -167 76.5 -303.5t209.5 -213.5t295 -77t295.5 77t210 213.5t76.5 303.5t-76.5 303.5t-210 213.5t-295.5 77 t-295 -77t-209.5 -213.5t-76.5 -303.5zM66 721q0 153 59.5 292.5t160.5 240.5t240.5 161t292.5 60t292.5 -60t240.5 -161t161 -240.5t60 -292.5t-60 -292.5t-161 -240.5t-240.5 -161t-292.5 -60t-292.5 60t-240.5 161t-160.5 240.5t-59.5 292.5z" />
<glyph unicode="&#xaa;" horiz-adv-x="739" d="M606 1290v-348q0 -17 6.5 -31t18.5 -14q19 0 30 22.5t11 49.5h37q0 -56 -38 -88.5t-102 -32.5q-110 0 -147 78q-24 -40 -77 -59t-101 -19q-97 0 -155 36.5t-58 112.5q0 167 248 189l131 12v105q0 62 -20 90t-83 28q-97 0 -114 -13q-6 -6 -7 -13q0 -7 17.5 -11.5t35 -18 t17.5 -42.5q0 -33 -23 -53.5t-61 -20.5q-43 0 -65.5 24t-22.5 62q0 123 231 123q58 0 107 -8t92 -26.5t67.5 -52.5t24.5 -81zM410 1018v137q-59 -1 -96.5 -11.5t-56 -31t-24.5 -43t-6 -57.5q0 -29 2 -46.5t10 -38.5t27 -31.5t49 -10.5q39 0 67 37t28 96z" />
<glyph unicode="&#xab;" horiz-adv-x="1024" d="M549 807l-238 -289l238 -287l-74 -63l-295 350l295 350zM844 807l-238 -289l238 -287l-74 -63l-295 350l295 350z" />
<glyph unicode="&#xac;" horiz-adv-x="1228" d="M961 225v416h-865v172h1037v-588h-172z" />
<glyph unicode="&#xad;" horiz-adv-x="909" d="M799 612l-76 -188q-38 1 -155.5 4.5t-182.5 3.5q-53 0 -148 -3.5t-126 -4.5l75 188q141 -8 322 -8q99 0 291 8z" />
<glyph unicode="&#xae;" horiz-adv-x="1638" d="M471 334v37q67 4 81.5 18.5t14.5 75.5v532q0 59 -15 74t-81 19v36h332q168 0 243.5 -48t75.5 -154q0 -72 -49 -132t-125 -85l109 -175q49 -81 85.5 -124t71.5 -50v-24h-172q-14 0 -35 21t-36 46l-160 279h-72v-215q0 -61 13 -75.5t79 -18.5v-37h-360zM739 1077v-348h68 q68 0 99.5 52.5t31.5 133.5q0 162 -129 162h-70zM238 721q0 -167 76.5 -303.5t209.5 -213.5t295 -77t295.5 77t210 213.5t76.5 303.5t-76.5 303.5t-210 213.5t-295.5 77t-295 -77t-209.5 -213.5t-76.5 -303.5zM66 721q0 153 59.5 292.5t160.5 240.5t240.5 161t292.5 60 t292.5 -60t240.5 -161t161 -240.5t60 -292.5t-60 -292.5t-161 -240.5t-240.5 -161t-292.5 -60t-292.5 60t-240.5 161t-160.5 240.5t-59.5 292.5z" />
<glyph unicode="&#xaf;" horiz-adv-x="569" d="M-43 1206v135h655v-135h-655z" />
<glyph unicode="&#xb0;" horiz-adv-x="819" d="M215 1165q0 -83 56 -138.5t139 -55.5t138.5 55.5t55.5 138.5t-55.5 139t-138.5 56t-139 -56t-56 -139zM117 1165q0 123 85 208t208 85t207.5 -85t84.5 -208t-84.5 -208t-207.5 -85t-208 85t-85 208z" />
<glyph unicode="&#xb1;" horiz-adv-x="1228" d="M528 731v305h172v-305h433v-172h-433v-309h-172v309h-432v172h432zM96 0v172h1037v-172h-1037z" />
<glyph unicode="&#xb2;" horiz-adv-x="739" d="M625 758l22 108h37q-30 -112 -35 -280h-612q35 69 85.5 131t160.5 157q38 33 59.5 52.5t50.5 52.5t44 61.5t26.5 68.5t11.5 83q0 52 -7 90t-25.5 71.5t-55.5 50.5t-92 17q-70 0 -124 -33.5t-54 -87.5q0 -15 6 -21.5t13.5 -6t22 3t23.5 2.5q38 0 60 -23.5t22 -64.5 q0 -39 -28 -61.5t-72 -22.5q-59 0 -90 39t-31 98q0 97 79 156t200 59q90 0 168 -29t130 -91t52 -146q0 -67 -25 -119.5t-63.5 -84t-90 -61t-100 -50.5t-97.5 -52.5t-79 -66.5h408z" />
<glyph unicode="&#xb3;" horiz-adv-x="739" d="M193 1044v37h83q107 0 146 43t39 144q0 75 -29.5 114t-97.5 39q-57 0 -102.5 -14t-45.5 -41q0 -18 37 -18q33 0 55.5 -20.5t22.5 -61.5q0 -39 -27 -64.5t-69 -25.5q-49 0 -75 30.5t-26 73.5q0 61 40.5 103t96 58.5t117.5 16.5q75 0 143 -22t113.5 -68t42.5 -106 q2 -48 -21.5 -85.5t-65 -59t-88 -33.5t-97.5 -15v-2q132 0 217.5 -62.5t85.5 -173.5q0 -68 -30.5 -120t-82.5 -81t-112 -43t-127 -14q-285 0 -285 179q0 48 32 82t81 34q43 0 66.5 -26t23.5 -70q0 -40 -24 -64t-62 -24q-31 0 -31 -18q0 -56 174 -56q50 0 84 12.5t53 30.5 t29 51t12.5 61.5t2.5 74.5q0 117 -42 160.5t-159 43.5h-98z" />
<glyph unicode="&#xb4;" horiz-adv-x="569" d="M199 1057l149 305q39 78 56 95.5t61 17.5q78 0 78 -52q0 -30 -49 -82l-269 -284h-26z" />
<glyph unicode="&#xb5;" horiz-adv-x="1251" d="M1219 37v-37h-424v172h-4q-39 -88 -125 -140t-189 -57q-47 0 -90 15q3 -91 12 -230t9 -186q0 -53 -33 -85t-92 -32q-61 0 -93 31.5t-32 85.5q0 81 8 226t8 190v874h-141v37h145q64 0 104.5 1.5t97.5 14.5t77 37v-782q0 -50 32.5 -86.5t85.5 -36.5q88 0 154 94t66 189v532 h-142v37h146q63 0 103.5 1.5t97.5 14.5t77 37v-917h142z" />
<glyph unicode="&#xb6;" horiz-adv-x="1269" d="M506 1442h606v-37h-156v-1878h156v-37h-340v1915h-147v-1915h-342v37h157v1059q-188 0 -279 118t-91 320q0 217 101.5 317.5t334.5 100.5zM440 635v754q-98 -19 -142 -107t-44 -262q0 -173 46.5 -264.5t139.5 -120.5z" />
<glyph unicode="&#xb7;" horiz-adv-x="569" d="M137 612q0 62 43.5 105t104.5 43t104 -43t43 -105t-43 -104.5t-104 -42.5q-62 0 -105 43t-43 104z" />
<glyph unicode="&#xb8;" horiz-adv-x="569" d="M80 -397l16 26q64 -22 142 -22q135 -6 135 106q0 34 -20.5 58t-57.5 24q-41 0 -84 -12l-35 14l121 203h49l-104 -172l4 -4q46 20 125 20q61 0 111 -35.5t50 -91.5q0 -44 -22.5 -76.5t-59 -49.5t-75.5 -25t-80 -8q-89 0 -215 45z" />
<glyph unicode="&#xb9;" horiz-adv-x="739" d="M514 1446v-823h113v-37h-451v37h129v606q0 45 -26 45q-35 0 -72 -19l-117 -55l-12 43q99 41 195.5 99t138.5 104h102z" />
<glyph unicode="&#xba;" horiz-adv-x="739" d="M53 1153q0 138 91 221.5t227 83.5q135 0 225 -83.5t90 -221.5t-90 -221.5t-225 -83.5q-136 0 -227 83.5t-91 221.5zM274 1307v-308q0 -56 27.5 -85t69.5 -29t68 29t26 85v308q0 56 -26 85t-68 29t-69.5 -29t-27.5 -85z" />
<glyph unicode="&#xbb;" horiz-adv-x="1024" d="M475 229l238 289l-238 287l74 63l295 -350l-295 -350zM180 229l238 289l-238 287l74 63l295 -350l-295 -350z" />
<glyph unicode="&#xbc;" horiz-adv-x="1708" d="M1196 0v37h115v186h-357v92l435 545h131v-489h100v-148h-100v-186h110v-37h-434zM1311 371v317h-4l-252 -317h256zM1413 1475l-948 -1508h-92l948 1508h92zM133 586v37h129v606q0 45 -26 45q-35 0 -72 -19l-117 -55l-12 43q99 41 195.5 99t138.5 104h102v-823h113v-37 h-451z" />
<glyph unicode="&#xbd;" horiz-adv-x="1708" d="M1331 1475l-948 -1508h-92l948 1508h92zM471 1446v-823h113v-37h-451v37h129v606q0 45 -26 45q-35 0 -72 -19l-117 -55l-12 43q99 41 195.5 99t138.5 104h102zM1571 172l22 109h37q-30 -112 -35 -281h-612q44 91 152 211q18 19 58.5 52t76 64.5t72 72.5t58 94t21.5 112 q0 52 -7 90t-25.5 71.5t-55.5 51t-92 17.5q-70 0 -124 -33.5t-54 -87.5q0 -15 6 -21.5t13.5 -6.5t22.5 2.5t23 2.5q38 0 60 -23.5t22 -64.5q0 -39 -28 -61.5t-72 -22.5q-59 0 -90 39t-31 98q0 97 79 156t200 59q90 0 168 -29t130 -91t52 -146q0 -67 -25.5 -119.5t-65 -84 t-92 -61t-102 -50.5t-99 -52.5t-79.5 -66.5h416z" />
<glyph unicode="&#xbe;" horiz-adv-x="1708" d="M1196 0v37h115v186h-357v92l435 545h131v-489h100v-148h-100v-186h110v-37h-434zM1311 371v317h-4l-252 -317h256zM1436 1475l-949 -1508h-92l948 1508h93zM219 1044v37h84q106 0 145 43t39 144q0 75 -29.5 114t-97.5 39q-57 0 -102 -14t-45 -41q0 -18 37 -18 q33 0 55.5 -20.5t22.5 -61.5q0 -39 -27.5 -64.5t-69.5 -25.5q-49 0 -74.5 30t-25.5 74q0 61 40.5 103t96 58.5t117.5 16.5q75 0 143 -22t113.5 -68t42.5 -106q2 -48 -21.5 -85.5t-65 -59t-88 -33.5t-97.5 -15v-2q132 0 217.5 -62.5t85.5 -173.5q0 -55 -20.5 -99.5 t-54.5 -73.5t-80.5 -48.5t-95.5 -28t-102 -8.5q-284 0 -284 179q0 48 31.5 82t80.5 34q43 0 67 -26t24 -70q0 -40 -24 -64t-62 -24q-31 0 -31 -18q0 -56 174 -56q50 0 84 12.5t53 30.5t28.5 51t12 61.5t2.5 74.5q0 117 -42 160.5t-159 43.5h-98z" />
<glyph unicode="&#xbf;" d="M700 551v-307q0 -78 -14.5 -119.5t-62.5 -77.5q-17 -17 -67.5 -60t-85 -75.5t-65 -84.5t-30.5 -103q0 -100 68 -165t169 -65q39 0 79 10.5t70 34.5t30 55q0 20 -16 25.5t-46 5.5q-55 0 -92 41t-37 103q0 65 46 102t112 37q76 0 122 -54.5t46 -132.5q0 -53 -20 -97 t-53.5 -74.5t-78 -51.5t-93.5 -31t-101 -10q-165 0 -265 106t-100 271q0 73 25 138t64.5 113.5t87.5 93t95.5 83.5t87 76t64.5 80.5t25 87.5v45h36zM838 774q0 -69 -48.5 -117.5t-117.5 -48.5t-117.5 48.5t-48.5 117.5t48.5 117.5t117.5 48.5t117.5 -48.5t48.5 -117.5z" />
<glyph unicode="&#xc0;" horiz-adv-x="1366" d="M23 0v37h26q55 4 86.5 35.5t52.5 87.5l476 1315h30l549 -1438h100v-37h-610v37h164l-149 426h-398l-98 -289q-14 -37 -14 -61q0 -76 98 -76h57v-37h-370zM367 500h364l-178 518h-4zM621 1810l149 -305h-27l-268 285q-49 52 -49 82q0 51 78 51q44 0 61 -17.5t56 -95.5z " />
<glyph unicode="&#xc1;" horiz-adv-x="1366" d="M23 0v37h26q55 4 86.5 35.5t52.5 87.5l476 1315h30l549 -1438h100v-37h-610v37h164l-149 426h-398l-98 -289q-14 -37 -14 -61q0 -76 98 -76h57v-37h-370zM367 500h364l-178 518h-4zM598 1505l150 305q39 78 55.5 95.5t60.5 17.5q78 0 78 -51q0 -30 -49 -82l-268 -285h-27 z" />
<glyph unicode="&#xc2;" horiz-adv-x="1366" d="M23 0v37h26q55 4 86.5 35.5t52.5 87.5l476 1315h30l549 -1438h100v-37h-610v37h164l-149 426h-398l-98 -289q-14 -37 -14 -61q0 -76 98 -76h57v-37h-370zM367 500h364l-178 518h-4zM690 1710l-262 -266h-29l222 418h139l209 -418h-29z" />
<glyph unicode="&#xc3;" horiz-adv-x="1366" d="M23 0v37h26q55 4 86.5 35.5t52.5 87.5l476 1315h30l549 -1438h100v-37h-610v37h164l-149 426h-398l-98 -289q-14 -37 -14 -61q0 -76 98 -76h57v-37h-370zM367 500h364l-178 518h-4zM397 1606h-37q34 111 56 150q52 90 133 91q40 0 170.5 -47t183.5 -47q27 0 66 98h39 q-11 -39 -18.5 -61t-25 -59.5t-35.5 -58.5t-48 -37.5t-66 -16.5q-59 0 -177.5 41t-166.5 41q-31 0 -50 -29t-24 -65z" />
<glyph unicode="&#xc4;" horiz-adv-x="1366" d="M23 0v37h26q55 4 86.5 35.5t52.5 87.5l476 1315h30l549 -1438h100v-37h-610v37h164l-149 426h-398l-98 -289q-14 -37 -14 -61q0 -76 98 -76h57v-37h-370zM367 500h364l-178 518h-4zM733 1731q0 54 37.5 91.5t91.5 37.5t91.5 -37.5t37.5 -91.5t-37.5 -91.5t-91.5 -37.5 t-91.5 37.5t-37.5 91.5zM377 1731q0 54 37.5 91.5t91.5 37.5t91.5 -37.5t37.5 -91.5t-37.5 -91.5t-91.5 -37.5t-91.5 37.5t-37.5 91.5z" />
<glyph unicode="&#xc5;" horiz-adv-x="1366" d="M23 0v37h26q55 4 86.5 35.5t52.5 87.5l476 1315h30l549 -1438h100v-37h-610v37h164l-149 426h-398l-98 -289q-14 -37 -14 -61q0 -76 98 -76h57v-37h-370zM367 500h364l-178 518h-4zM463 1720q0 92 64.5 157t156.5 65t156.5 -65t64.5 -157t-64.5 -156.5t-156.5 -64.5 t-156.5 64.5t-64.5 156.5zM561 1720q0 -51 36 -87t87 -36t87 36t36 87t-36 87t-87 36t-87 -36t-36 -87z" />
<glyph unicode="&#xc6;" horiz-adv-x="2048" d="M23 0v37h16q28 0 55.5 15.5t49 36t51 63.5t48 74.5t52.5 92.5l612 1086h-178v37h1143v-408h-37v29q0 146 -102 244t-279 98h-240v-627h140q202 0 202 271v22h37v-647h-37v16q0 301 -284 301h-58v-704h293q69 0 127 16t96.5 41.5t68.5 61t47.5 71.5t28 76t14 70t3.5 59v29 h37v-461h-1200v37h178v426h-483l-109 -201q-55 -108 -55 -153q0 -72 129 -72h14v-37h-380zM907 500v831h-4l-463 -831h467z" />
<glyph unicode="&#xc7;" horiz-adv-x="1366" d="M782 -29l-86 -143l4 -4q46 20 125 20q61 0 111.5 -35.5t50.5 -91.5q0 -44 -22.5 -76.5t-59 -49.5t-75.5 -25t-80 -8q-89 0 -215 45l16 26q64 -22 141 -22q135 -6 135 106q0 34 -20 58t-57 24q-40 0 -84 -12l-35 14l102 170q-118 0 -221.5 40.5t-180 110.5t-132 162.5 t-83.5 199t-28 216.5t29 221t87.5 211t138 177.5t188.5 123.5t231 46q63 0 138 -26.5t138 -52.5t97 -26q64 0 67 62h37v-484h-37q-13 80 -51 165t-93.5 158t-134 120t-161.5 47q-80 0 -139.5 -39t-103 -123t-65.5 -223t-22 -332q0 -377 75.5 -547t248.5 -170q94 0 176 43 t136 109.5t88 138t46 137.5l12 70h31v-502h-31q-8 31 -27 57.5t-48 26.5q-19 0 -52.5 -16t-69 -36t-99.5 -38.5t-136 -22.5z" />
<glyph unicode="&#xc8;" horiz-adv-x="1366" d="M45 0v37h166v1368h-166v37h1145v-408h-37v29q0 146 -102 244t-279 98h-242v-627h142q102 0 152 64t50 207v22h37v-647h-37v47q0 115 -53 192.5t-149 77.5h-142v-704h295q69 0 127 16t96.5 41.5t68.5 61t47.5 71.5t28 76t14 70t3.5 59v29h37v-461h-1202zM621 1810 l149 -305h-27l-268 285q-49 52 -49 82q0 51 78 51q44 0 61 -17.5t56 -95.5z" />
<glyph unicode="&#xc9;" horiz-adv-x="1366" d="M45 0v37h166v1368h-166v37h1145v-408h-37v29q0 146 -102 244t-279 98h-242v-627h142q102 0 152 64t50 207v22h37v-647h-37v47q0 115 -53 192.5t-149 77.5h-142v-704h295q69 0 127 16t96.5 41.5t68.5 61t47.5 71.5t28 76t14 70t3.5 59v29h37v-461h-1202zM598 1505l150 305 q39 78 55.5 95.5t60.5 17.5q78 0 78 -51q0 -30 -49 -82l-268 -285h-27z" />
<glyph unicode="&#xca;" horiz-adv-x="1366" d="M45 0v37h166v1368h-166v37h1145v-408h-37v29q0 146 -102 244t-279 98h-242v-627h142q102 0 152 64t50 207v22h37v-647h-37v47q0 115 -53 192.5t-149 77.5h-142v-704h295q69 0 127 16t96.5 41.5t68.5 61t47.5 71.5t28 76t14 70t3.5 59v29h37v-461h-1202zM690 1772 l-262 -267h-29l222 418h139l209 -418h-29z" />
<glyph unicode="&#xcb;" horiz-adv-x="1366" d="M45 0v37h166v1368h-166v37h1145v-408h-37v29q0 146 -102 244t-279 98h-242v-627h142q102 0 152 64t50 207v22h37v-647h-37v47q0 115 -53 192.5t-149 77.5h-142v-704h295q69 0 127 16t96.5 41.5t68.5 61t47.5 71.5t28 76t14 70t3.5 59v29h37v-461h-1202zM377 1731 q0 54 37.5 91.5t91.5 37.5t91.5 -37.5t37.5 -91.5t-37.5 -91.5t-91.5 -37.5t-91.5 37.5t-37.5 91.5zM733 1731q0 54 37.5 91.5t91.5 37.5t91.5 -37.5t37.5 -91.5t-37.5 -91.5t-91.5 -37.5t-91.5 37.5t-37.5 91.5z" />
<glyph unicode="&#xcc;" horiz-adv-x="798" d="M74 0v37h166v1368h-166v37h651v-37h-166v-1368h166v-37h-651zM336 1810l149 -305h-26l-269 285q-49 52 -49 82q0 51 78 51q44 0 61 -17.5t56 -95.5z" />
<glyph unicode="&#xcd;" horiz-adv-x="798" d="M74 0v37h166v1368h-166v37h651v-37h-166v-1368h166v-37h-651zM313 1505l150 305q39 78 56 95.5t61 17.5q77 0 77 -51q0 -30 -49 -82l-268 -285h-27z" />
<glyph unicode="&#xce;" horiz-adv-x="798" d="M74 0v37h166v1368h-166v37h651v-37h-166v-1368h166v-37h-651zM406 1772l-263 -267h-28l221 418h139l209 -418h-29z" />
<glyph unicode="&#xcf;" horiz-adv-x="798" d="M74 0v37h166v1368h-166v37h651v-37h-166v-1368h166v-37h-651zM92 1731q0 54 37.5 91.5t91.5 37.5t91.5 -37.5t37.5 -91.5t-37.5 -91.5t-91.5 -37.5t-91.5 37.5t-37.5 91.5zM449 1731q0 54 37.5 91.5t91.5 37.5t91.5 -37.5t37.5 -91.5t-37.5 -91.5t-91.5 -37.5t-91.5 37.5 t-37.5 91.5z" />
<glyph unicode="&#xd0;" horiz-adv-x="1593" d="M72 0v37h166v739h-144v62h144v567h-166v37h706q214 0 378 -87.5t256.5 -254t92.5 -389.5q0 -58 -10 -120.5t-34.5 -133t-61 -135t-94 -124t-129 -103t-171 -69.5t-214.5 -26h-719zM557 1405v-567h309v-62h-309v-739h170q66 0 120.5 12.5t96 33t74 54.5t55.5 70t39 86 t25.5 96.5t15 107.5t7 113t1.5 119q0 94 -3 161.5t-12.5 143t-27 127t-48 101t-73 78.5t-103.5 47t-140 18h-197z" />
<glyph unicode="&#xd1;" horiz-adv-x="1478" d="M33 0v37h14h23q56 0 89.5 31t33.5 116v1100l-91 121h-63v37h422l772 -993h4v839q0 117 -139 117h-39v37h387v-37h-29q-64 0 -97.5 -34t-33.5 -77v-1319h-86l-954 1246h-4v-1047q0 -84 34 -110.5t125 -26.5h19v-37h-387zM453 1606h-37q34 110 54 148q52 92 134 93 q40 0 170.5 -47t183.5 -47q27 0 66 98h39q-11 -39 -18.5 -61t-25 -59.5t-35.5 -58.5t-48 -37.5t-66 -16.5q-59 0 -177.5 41t-166.5 41q-30 0 -48.5 -29t-24.5 -65z" />
<glyph unicode="&#xd2;" horiz-adv-x="1478" d="M88 721q0 150 48 287t132 240.5t207 165t264 61.5t264.5 -61.5t207.5 -165t132 -240.5t48 -287q3 -141 -48 -279t-138.5 -242t-210.5 -168.5t-255 -64.5t-255 64.5t-210 168.5t-138 242t-48 279zM739 4q177 0 242.5 159.5t65.5 557.5q0 135 -9 243t-24 182.5t-39 128.5 t-48.5 85t-58 49t-62.5 23.5t-67 5.5t-67 -5.5t-62.5 -23.5t-58 -49t-48 -85t-38.5 -128.5t-24 -182.5t-9 -243q0 -398 65 -557.5t242 -159.5zM676 1810l149 -305h-26l-269 285q-49 52 -49 82q0 51 78 51q44 0 61 -17.5t56 -95.5z" />
<glyph unicode="&#xd3;" horiz-adv-x="1478" d="M88 721q0 150 48 287t132 240.5t207 165t264 61.5t264.5 -61.5t207.5 -165t132 -240.5t48 -287q3 -141 -48 -279t-138.5 -242t-210.5 -168.5t-255 -64.5t-255 64.5t-210 168.5t-138 242t-48 279zM739 4q177 0 242.5 159.5t65.5 557.5q0 135 -9 243t-24 182.5t-39 128.5 t-48.5 85t-58 49t-62.5 23.5t-67 5.5t-67 -5.5t-62.5 -23.5t-58 -49t-48 -85t-38.5 -128.5t-24 -182.5t-9 -243q0 -398 65 -557.5t242 -159.5zM653 1505l150 305q39 78 56 95.5t61 17.5q77 0 77 -51q0 -30 -49 -82l-268 -285h-27z" />
<glyph unicode="&#xd4;" horiz-adv-x="1478" d="M88 721q0 150 48 287t132 240.5t207 165t264 61.5t264.5 -61.5t207.5 -165t132 -240.5t48 -287q3 -141 -48 -279t-138.5 -242t-210.5 -168.5t-255 -64.5t-255 64.5t-210 168.5t-138 242t-48 279zM739 4q177 0 242.5 159.5t65.5 557.5q0 135 -9 243t-24 182.5t-39 128.5 t-48.5 85t-58 49t-62.5 23.5t-67 5.5t-67 -5.5t-62.5 -23.5t-58 -49t-48 -85t-38.5 -128.5t-24 -182.5t-9 -243q0 -398 65 -557.5t242 -159.5zM745 1772l-262 -267h-28l221 418h139l209 -418h-29z" />
<glyph unicode="&#xd5;" horiz-adv-x="1478" d="M88 721q0 150 48 287t132 240.5t207 165t264 61.5t264.5 -61.5t207.5 -165t132 -240.5t48 -287q3 -141 -48 -279t-138.5 -242t-210.5 -168.5t-255 -64.5t-255 64.5t-210 168.5t-138 242t-48 279zM739 4q177 0 242.5 159.5t65.5 557.5q0 135 -9 243t-24 182.5t-39 128.5 t-48.5 85t-58 49t-62.5 23.5t-67 5.5t-67 -5.5t-62.5 -23.5t-58 -49t-48 -85t-38.5 -128.5t-24 -182.5t-9 -243q0 -398 65 -557.5t242 -159.5zM453 1606h-37q34 110 54 148q52 92 134 93q40 0 170.5 -47t183.5 -47q27 0 66 98h39q-11 -39 -18.5 -61t-25 -59.5t-35.5 -58.5 t-48 -37.5t-66 -16.5q-59 0 -177.5 41t-166.5 41q-30 0 -48.5 -29t-24.5 -65z" />
<glyph unicode="&#xd6;" horiz-adv-x="1478" d="M88 721q0 150 48 287t132 240.5t207 165t264 61.5t264.5 -61.5t207.5 -165t132 -240.5t48 -287q3 -141 -48 -279t-138.5 -242t-210.5 -168.5t-255 -64.5t-255 64.5t-210 168.5t-138 242t-48 279zM739 4q177 0 242.5 159.5t65.5 557.5q0 135 -9 243t-24 182.5t-39 128.5 t-48.5 85t-58 49t-62.5 23.5t-67 5.5t-67 -5.5t-62.5 -23.5t-58 -49t-48 -85t-38.5 -128.5t-24 -182.5t-9 -243q0 -398 65 -557.5t242 -159.5zM432 1731q0 54 37.5 91.5t91.5 37.5t91.5 -37.5t37.5 -91.5t-37.5 -91.5t-91.5 -37.5t-91.5 37.5t-37.5 91.5zM788 1731 q0 54 38 91.5t92 37.5t91.5 -37.5t37.5 -91.5t-37.5 -91.5t-91.5 -37.5t-92 37.5t-38 91.5z" />
<glyph unicode="&#xd7;" horiz-adv-x="1228" d="M487 518l-348 348l127 127l348 -348l349 348l127 -127l-349 -348l349 -348l-127 -127l-349 348l-348 -348l-127 127z" />
<glyph unicode="&#xd8;" horiz-adv-x="1478" d="M1004 1176l-510 -1002q34 -89 93 -129.5t152 -40.5q177 0 242.5 159.5t65.5 557.5q0 307 -43 455zM471 254l510 1001q-21 57 -49 95t-60.5 56t-63 25t-69.5 7q-38 0 -67 -5.5t-62.5 -23.5t-58 -49t-48 -85t-38.5 -128.5t-24 -182.5t-9 -243q0 -320 39 -467zM328 -29 l61 123q-140 106 -222.5 275.5t-78.5 351.5q0 150 48 287t132 240.5t207 165t264 61.5q167 0 308 -89l55 109l51 -25l-57 -114q138 -101 216.5 -270.5t78.5 -364.5q3 -141 -48 -279t-138.5 -242t-210.5 -168.5t-255 -64.5q-161 0 -303 92l-57 -112z" />
<glyph unicode="&#xd9;" horiz-adv-x="1478" d="M33 1405v37h645v-37h-166v-901q0 -85 8.5 -149.5t32 -126t62.5 -101t103.5 -63t151.5 -23.5q158 0 262.5 107t104.5 307v778q0 92 -30.5 132t-106.5 40h-60v37h406v-37h-53q-56 0 -81.5 -41.5t-25.5 -130.5v-766q0 -235 -133.5 -367.5t-407.5 -132.5q-252 0 -402 137 t-150 373v928h-160zM768 1810l150 -305h-27l-268 285q-50 53 -50 82q0 51 78 51q44 0 61 -17.5t56 -95.5z" />
<glyph unicode="&#xda;" horiz-adv-x="1478" d="M33 1405v37h645v-37h-166v-901q0 -85 8.5 -149.5t32 -126t62.5 -101t103.5 -63t151.5 -23.5q158 0 262.5 107t104.5 307v778q0 92 -30.5 132t-106.5 40h-60v37h406v-37h-53q-56 0 -81.5 -41.5t-25.5 -130.5v-766q0 -235 -133.5 -367.5t-407.5 -132.5q-252 0 -402 137 t-150 373v928h-160zM745 1505l150 305q39 78 56 95.5t61 17.5q78 0 78 -51q0 -29 -50 -82l-268 -285h-27z" />
<glyph unicode="&#xdb;" horiz-adv-x="1478" d="M33 1405v37h645v-37h-166v-901q0 -85 8.5 -149.5t32 -126t62.5 -101t103.5 -63t151.5 -23.5q158 0 262.5 107t104.5 307v778q0 92 -30.5 132t-106.5 40h-60v37h406v-37h-53q-56 0 -81.5 -41.5t-25.5 -130.5v-766q0 -235 -133.5 -367.5t-407.5 -132.5q-252 0 -402 137 t-150 373v928h-160zM838 1772l-263 -267h-28l221 418h139l209 -418h-29z" />
<glyph unicode="&#xdc;" horiz-adv-x="1478" d="M33 1405v37h645v-37h-166v-901q0 -85 8.5 -149.5t32 -126t62.5 -101t103.5 -63t151.5 -23.5q158 0 262.5 107t104.5 307v778q0 92 -30.5 132t-106.5 40h-60v37h406v-37h-53q-56 0 -81.5 -41.5t-25.5 -130.5v-766q0 -235 -133.5 -367.5t-407.5 -132.5q-252 0 -402 137 t-150 373v928h-160zM524 1669q0 54 37.5 91.5t91.5 37.5t91.5 -37.5t37.5 -91.5t-37.5 -91.5t-91.5 -37.5t-91.5 37.5t-37.5 91.5zM881 1669q0 54 37.5 91.5t91.5 37.5t91.5 -37.5t37.5 -91.5t-37.5 -91.5t-91.5 -37.5t-91.5 37.5t-37.5 91.5z" />
<glyph unicode="&#xdd;" horiz-adv-x="1366" d="M395 0v37h158v465l-397 903h-136v37h631v-37h-147l338 -774l243 553q41 97 41 141q0 41 -27.5 60.5t-94.5 19.5h-27v37h369v-37h-15q-55 0 -94.5 -40.5t-85.5 -152.5l-279 -624v-551h158v-37h-635zM690 1505l150 305q39 78 55.5 95.5t60.5 17.5q78 0 78 -51 q0 -30 -49 -82l-268 -285h-27z" />
<glyph unicode="&#xde;" horiz-adv-x="1366" d="M55 0v37h166v1368h-166v37h645v-37h-159v-197q13 1 102.5 7t142.5 6q98 0 186 -23t161 -68.5t116 -121t43 -172.5q0 -108 -42.5 -190t-118.5 -132t-174 -75t-216 -25q-47 0 -200 10v-387h202v-37h-688zM541 1161v-688q41 -10 135 -10q69 0 118 17.5t78.5 46.5t46.5 77.5 t23 100t6 124.5q0 89 -10 147t-38.5 105t-83 68.5t-140.5 21.5q-67 0 -135 -10z" />
<glyph unicode="&#xdf;" horiz-adv-x="1251" d="M201 37v852q0 119 30 223t88 186t153.5 129.5t217.5 47.5q74 0 136.5 -16t113.5 -49t80 -91t29 -135q0 -60 -27 -120t-65.5 -104.5t-76.5 -82t-65 -64.5t-27 -39q-1 -14 28 -28t73.5 -27t96 -38t96.5 -57.5t74.5 -90t29.5 -130.5q0 -101 -19.5 -178t-49.5 -121t-73 -71 t-82 -36t-83 -9q-120 -2 -205 62t-84 169q0 57 34 97t87 40q66 0 101.5 -32t35.5 -91q0 -31 -11.5 -55.5t-28 -38.5t-33.5 -25t-28.5 -23t-11.5 -25q0 -21 46 -37.5t96 -16.5q33 0 70 12t72 34.5t58 62.5t23 90q0 47 -24.5 83.5t-64 60.5t-87.5 44.5t-95.5 41t-87 44.5 t-64 60.5t-24.5 83.5q0 35 15 66.5t39 58.5t53.5 55t58.5 62.5t53 74t39 95.5t15 122q0 136 -45.5 205.5t-167.5 69.5q-121 0 -175.5 -64t-54.5 -190v-1147h115v-37h-539v37h142z" />
<glyph unicode="&#xe0;" d="M942 635v-471q0 -103 47 -103q34 0 53 35t19 80h37q0 -91 -59.5 -146t-159.5 -55q-70 0 -124 33t-81 96q-36 -66 -118 -97.5t-157 -31.5q-62 0 -117 14.5t-100.5 43.5t-72.5 78.5t-27 113.5q0 62 23.5 109.5t59.5 76.5t89.5 49t104 28.5t112.5 13.5l201 16v172 q0 51 -6 83.5t-23 61t-53 41.5t-92 13q-40 0 -80.5 -5.5t-74 -20.5t-32.5 -36q1 -11 17.5 -21t36 -18.5t35.5 -31.5t16 -56q0 -55 -33.5 -88.5t-91.5 -33.5q-66 0 -99.5 37.5t-33.5 95.5q0 88 101.5 151.5t252.5 63.5q68 0 126.5 -7.5t115.5 -28t97.5 -52.5t65.5 -84 t25 -119zM672 244v237l-162 -16q-48 -5 -78.5 -20t-44.5 -43t-18 -56.5t-4 -75.5q0 -33 1 -55t5.5 -52t14 -50t25 -38.5t40.5 -28t59 -9.5q70 0 114.5 61t47.5 146zM506 1362l149 -305h-26l-269 284q-49 52 -49 82q0 52 78 52q44 0 61 -17.5t56 -95.5z" />
<glyph unicode="&#xe1;" d="M942 635v-471q0 -103 47 -103q34 0 53 35t19 80h37q0 -91 -59.5 -146t-159.5 -55q-70 0 -124 33t-81 96q-36 -66 -118 -97.5t-157 -31.5q-62 0 -117 14.5t-100.5 43.5t-72.5 78.5t-27 113.5q0 62 23.5 109.5t59.5 76.5t89.5 49t104 28.5t112.5 13.5l201 16v172 q0 51 -6 83.5t-23 61t-53 41.5t-92 13q-40 0 -80.5 -5.5t-74 -20.5t-32.5 -36q1 -11 17.5 -21t36 -18.5t35.5 -31.5t16 -56q0 -55 -33.5 -88.5t-91.5 -33.5q-66 0 -99.5 37.5t-33.5 95.5q0 88 101.5 151.5t252.5 63.5q68 0 126.5 -7.5t115.5 -28t97.5 -52.5t65.5 -84 t25 -119zM672 244v237l-162 -16q-48 -5 -78.5 -20t-44.5 -43t-18 -56.5t-4 -75.5q0 -33 1 -55t5.5 -52t14 -50t25 -38.5t40.5 -28t59 -9.5q70 0 114.5 61t47.5 146zM483 1057l150 305q39 78 56 95.5t61 17.5q77 0 77 -52q0 -30 -49 -82l-268 -284h-27z" />
<glyph unicode="&#xe2;" d="M942 635v-471q0 -103 47 -103q34 0 53 35t19 80h37q0 -91 -59.5 -146t-159.5 -55q-70 0 -124 33t-81 96q-36 -66 -118 -97.5t-157 -31.5q-62 0 -117 14.5t-100.5 43.5t-72.5 78.5t-27 113.5q0 62 23.5 109.5t59.5 76.5t89.5 49t104 28.5t112.5 13.5l201 16v172 q0 51 -6 83.5t-23 61t-53 41.5t-92 13q-40 0 -80.5 -5.5t-74 -20.5t-32.5 -36q1 -11 17.5 -21t36 -18.5t35.5 -31.5t16 -56q0 -55 -33.5 -88.5t-91.5 -33.5q-66 0 -99.5 37.5t-33.5 95.5q0 88 101.5 151.5t252.5 63.5q68 0 126.5 -7.5t115.5 -28t97.5 -52.5t65.5 -84 t25 -119zM672 244v237l-162 -16q-48 -5 -78.5 -20t-44.5 -43t-18 -56.5t-4 -75.5q0 -33 1 -55t5.5 -52t14 -50t25 -38.5t40.5 -28t59 -9.5q70 0 114.5 61t47.5 146zM575 1323l-262 -266h-28l221 418h139l209 -418h-29z" />
<glyph unicode="&#xe3;" d="M942 635v-471q0 -103 47 -103q34 0 53 35t19 80h37q0 -91 -59.5 -146t-159.5 -55q-70 0 -124 33t-81 96q-36 -66 -118 -97.5t-157 -31.5q-62 0 -117 14.5t-100.5 43.5t-72.5 78.5t-27 113.5q0 62 23.5 109.5t59.5 76.5t89.5 49t104 28.5t112.5 13.5l201 16v172 q0 51 -6 83.5t-23 61t-53 41.5t-92 13q-40 0 -80.5 -5.5t-74 -20.5t-32.5 -36q1 -11 17.5 -21t36 -18.5t35.5 -31.5t16 -56q0 -55 -33.5 -88.5t-91.5 -33.5q-66 0 -99.5 37.5t-33.5 95.5q0 88 101.5 151.5t252.5 63.5q68 0 126.5 -7.5t115.5 -28t97.5 -52.5t65.5 -84 t25 -119zM672 244v237l-162 -16q-48 -5 -78.5 -20t-44.5 -43t-18 -56.5t-4 -75.5q0 -33 1 -55t5.5 -52t14 -50t25 -38.5t40.5 -28t59 -9.5q70 0 114.5 61t47.5 146zM283 1157h-37q34 109 53 146q51 96 135 96q40 0 170.5 -47t183.5 -47q27 0 66 98h39q-12 -39 -19 -61 t-24.5 -60t-35.5 -58.5t-48 -37.5t-66 -17q-59 0 -177.5 41t-166.5 41q-30 0 -48.5 -29t-24.5 -65z" />
<glyph unicode="&#xe4;" d="M942 635v-471q0 -103 47 -103q34 0 53 35t19 80h37q0 -91 -59.5 -146t-159.5 -55q-70 0 -124 33t-81 96q-36 -66 -118 -97.5t-157 -31.5q-62 0 -117 14.5t-100.5 43.5t-72.5 78.5t-27 113.5q0 62 23.5 109.5t59.5 76.5t89.5 49t104 28.5t112.5 13.5l201 16v172 q0 51 -6 83.5t-23 61t-53 41.5t-92 13q-40 0 -80.5 -5.5t-74 -20.5t-32.5 -36q1 -11 17.5 -21t36 -18.5t35.5 -31.5t16 -56q0 -55 -33.5 -88.5t-91.5 -33.5q-66 0 -99.5 37.5t-33.5 95.5q0 88 101.5 151.5t252.5 63.5q68 0 126.5 -7.5t115.5 -28t97.5 -52.5t65.5 -84 t25 -119zM672 244v237l-162 -16q-48 -5 -78.5 -20t-44.5 -43t-18 -56.5t-4 -75.5q0 -33 1 -55t5.5 -52t14 -50t25 -38.5t40.5 -28t59 -9.5q70 0 114.5 61t47.5 146zM262 1282q0 54 37.5 91.5t91.5 37.5t91.5 -37.5t37.5 -91.5t-37.5 -91.5t-91.5 -37.5t-91.5 37.5 t-37.5 91.5zM618 1282q0 54 38 91.5t92 37.5t91.5 -37.5t37.5 -91.5t-37.5 -91.5t-91.5 -37.5t-92 37.5t-38 91.5z" />
<glyph unicode="&#xe5;" d="M942 635v-471q0 -103 47 -103q34 0 53 35t19 80h37q0 -91 -59.5 -146t-159.5 -55q-70 0 -124 33t-81 96q-36 -66 -118 -97.5t-157 -31.5q-62 0 -117 14.5t-100.5 43.5t-72.5 78.5t-27 113.5q0 62 23.5 109.5t59.5 76.5t89.5 49t104 28.5t112.5 13.5l201 16v172 q0 51 -6 83.5t-23 61t-53 41.5t-92 13q-40 0 -80.5 -5.5t-74 -20.5t-32.5 -36q1 -11 17.5 -21t36 -18.5t35.5 -31.5t16 -56q0 -55 -33.5 -88.5t-91.5 -33.5q-66 0 -99.5 37.5t-33.5 95.5q0 88 101.5 151.5t252.5 63.5q68 0 126.5 -7.5t115.5 -28t97.5 -52.5t65.5 -84 t25 -119zM672 244v237l-162 -16q-48 -5 -78.5 -20t-44.5 -43t-18 -56.5t-4 -75.5q0 -33 1 -55t5.5 -52t14 -50t25 -38.5t40.5 -28t59 -9.5q70 0 114.5 61t47.5 146zM332 1229q0 92 64.5 156.5t156.5 64.5t156.5 -64.5t64.5 -156.5t-64.5 -156.5t-156.5 -64.5t-156.5 64.5 t-64.5 156.5zM430 1229q0 -51 36 -87t87 -36t87 36t36 87t-36 87t-87 36t-87 -36t-36 -87z" />
<glyph unicode="&#xe6;" horiz-adv-x="1591" d="M905 532h293v197q0 85 -37.5 121.5t-109.5 36.5q-65 0 -105.5 -46t-40.5 -153v-156zM647 221v260l-133 -16q-78 -10 -113.5 -52t-35.5 -143q0 -33 1 -55t4.5 -52t12 -50t21.5 -38.5t34.5 -28t50.5 -9.5q58 0 108 56.5t50 127.5zM905 496v-172q0 -299 244 -299 q119 0 204.5 82.5t119.5 226.5h36q-36 -164 -139.5 -261.5t-282.5 -97.5q-126 0 -238.5 54.5t-160.5 160.5h-4q-18 -65 -53.5 -110.5t-79 -66.5t-80 -29.5t-72.5 -8.5q-62 0 -117 14.5t-100.5 43.5t-72.5 78.5t-27 113.5q0 58 19.5 102.5t54 75t88 51.5t115 32.5t141.5 17.5 l147 12v174q0 103 -29.5 151t-119.5 48q-76 0 -131.5 -14.5t-55.5 -47.5q1 -10 12 -16.5t26 -13t30.5 -16t26 -30.5t10.5 -51q0 -55 -33.5 -88.5t-91.5 -33.5q-66 0 -99.5 39t-33.5 104q0 95 98.5 150t255.5 55q205 0 311 -88q98 88 258 88q117 0 215.5 -61.5t153 -160 t55.5 -208.5h-600z" />
<glyph unicode="&#xe7;" horiz-adv-x="1024" d="M559 -23l-90 -149l4 -4q46 20 125 20q61 0 111.5 -35.5t50.5 -91.5q0 -44 -22.5 -76.5t-59.5 -49.5t-76 -25t-80 -8q-89 0 -215 45l17 26q64 -22 141 -22q135 -6 135 106q0 34 -20.5 58t-57.5 24q-40 0 -84 -12l-35 14l111 187q-186 17 -309 146t-123 316 q0 119 69.5 230.5t187.5 180.5t249 69q55 0 114 -14t113.5 -41.5t89.5 -76t35 -108.5t-38.5 -100.5t-110.5 -40.5q-61 0 -97.5 39.5t-36.5 99.5q0 31 12 55.5t27 36t27 24t12 23.5q0 26 -40 46t-107 20q-111 0 -155 -69t-44 -238v-234q0 -133 24.5 -208t66.5 -101.5 t112 -26.5q132 0 226 82.5t106 198.5h37q-17 -143 -123 -230.5t-265 -87.5q-10 0 -14 2z" />
<glyph unicode="&#xe8;" horiz-adv-x="1024" d="M954 496h-565v-172q0 -48 3.5 -85t16.5 -79.5t34.5 -70t61.5 -46t95 -18.5q119 0 204.5 82.5t119.5 226.5h37q-36 -164 -139.5 -261.5t-282.5 -97.5q-196 0 -326.5 132.5t-130.5 332.5q0 204 133 345t317 141q105 2 203 -59t158 -162t61 -209zM389 532h258v177 q0 90 -29.5 135t-99.5 45q-129 0 -129 -180v-177zM449 1362l149 -305h-27l-268 284q-49 52 -49 82q0 52 78 52q44 0 61 -17.5t56 -95.5z" />
<glyph unicode="&#xe9;" horiz-adv-x="1024" d="M954 496h-565v-172q0 -48 3.5 -85t16.5 -79.5t34.5 -70t61.5 -46t95 -18.5q119 0 204.5 82.5t119.5 226.5h37q-36 -164 -139.5 -261.5t-282.5 -97.5q-196 0 -326.5 132.5t-130.5 332.5q0 204 133 345t317 141q105 2 203 -59t158 -162t61 -209zM389 532h258v177 q0 90 -29.5 135t-99.5 45q-129 0 -129 -180v-177zM426 1057l149 305q39 78 56 95.5t61 17.5q78 0 78 -52q0 -30 -49 -82l-268 -284h-27z" />
<glyph unicode="&#xea;" horiz-adv-x="1024" d="M954 496h-565v-172q0 -48 3.5 -85t16.5 -79.5t34.5 -70t61.5 -46t95 -18.5q119 0 204.5 82.5t119.5 226.5h37q-36 -164 -139.5 -261.5t-282.5 -97.5q-196 0 -326.5 132.5t-130.5 332.5q0 204 133 345t317 141q105 2 203 -59t158 -162t61 -209zM389 532h258v177 q0 90 -29.5 135t-99.5 45q-129 0 -129 -180v-177zM518 1323l-262 -266h-29l222 418h139l209 -418h-29z" />
<glyph unicode="&#xeb;" horiz-adv-x="1024" d="M954 496h-565v-172q0 -48 3.5 -85t16.5 -79.5t34.5 -70t61.5 -46t95 -18.5q119 0 204.5 82.5t119.5 226.5h37q-36 -164 -139.5 -261.5t-282.5 -97.5q-196 0 -326.5 132.5t-130.5 332.5q0 204 133 345t317 141q105 2 203 -59t158 -162t61 -209zM389 532h258v177 q0 90 -29.5 135t-99.5 45q-129 0 -129 -180v-177zM205 1282q0 54 37.5 91.5t91.5 37.5t91.5 -37.5t37.5 -91.5t-37.5 -91.5t-91.5 -37.5t-91.5 37.5t-37.5 91.5zM561 1282q0 54 37.5 91.5t91.5 37.5t91.5 -37.5t37.5 -91.5t-37.5 -91.5t-91.5 -37.5t-91.5 37.5t-37.5 91.5z " />
<glyph unicode="&#xec;" horiz-adv-x="684" d="M59 0v37h142v827h-142v37h146q63 0 103.5 1.5t97.5 14.5t77 37v-917h142v-37h-566zM279 1362l149 -305h-27l-268 284q-49 52 -49 82q0 52 78 52q44 0 61 -17.5t56 -95.5z" />
<glyph unicode="&#xed;" horiz-adv-x="684" d="M59 0v37h142v827h-142v37h146q63 0 103.5 1.5t97.5 14.5t77 37v-917h142v-37h-566zM256 1057l150 305q39 78 55.5 95.5t60.5 17.5q78 0 78 -52q0 -30 -49 -82l-268 -284h-27z" />
<glyph unicode="&#xee;" horiz-adv-x="684" d="M59 0v37h142v827h-142v37h146q63 0 103.5 1.5t97.5 14.5t77 37v-917h142v-37h-566zM348 1323l-262 -266h-29l222 418h139l209 -418h-29z" />
<glyph unicode="&#xef;" horiz-adv-x="684" d="M59 0v37h142v827h-142v37h146q63 0 103.5 1.5t97.5 14.5t77 37v-917h142v-37h-566zM35 1282q0 54 37.5 91.5t91.5 37.5t91.5 -37.5t37.5 -91.5t-37.5 -91.5t-91.5 -37.5t-91.5 37.5t-37.5 91.5zM391 1282q0 54 37.5 91.5t91.5 37.5t91.5 -37.5t37.5 -91.5t-37.5 -91.5 t-91.5 -37.5t-91.5 37.5t-37.5 91.5z" />
<glyph unicode="&#xf0;" d="M401 696v-491q0 -95 44 -144t124 -49t124 49t44 144v491q0 95 -44 144t-124 49t-124 -49t-44 -144zM289 1161l200 117q-119 119 -241 160l16 37q203 -21 354 -121l209 121l45 -41l-198 -115q180 -128 281.5 -338t101.5 -449q0 -132 -38 -239t-104.5 -176t-155 -105.5 t-190.5 -36.5q-134 0 -245 59.5t-176.5 169.5t-65.5 247t65.5 246.5t176.5 169t245 59.5q100 0 152 -62l4 2q-17 97 -68.5 193.5t-124.5 177.5l-200 -117z" />
<glyph unicode="&#xf1;" horiz-adv-x="1251" d="M33 0v37h141v827h-141v37h145q64 0 104.5 1.5t97.5 14.5t77 37v-219h4q40 88 131 139.5t196 51.5q147 0 218 -76.5t71 -241.5v-571h142v-37h-541v37h117v647q0 97 -33.5 132.5t-87.5 35.5q-82 0 -149.5 -85.5t-67.5 -168.5v-561h121v-37h-545zM340 1157h-37 q34 111 56 150q50 92 133 92q40 0 170.5 -47t183.5 -47q26 0 65 98h39q-12 -40 -18.5 -61t-24.5 -59.5t-35.5 -59t-47.5 -37.5t-66 -17q-59 0 -177.5 41t-166.5 41q-31 0 -50 -29t-24 -65z" />
<glyph unicode="&#xf2;" d="M82 451q0 137 65.5 246.5t176.5 169t245 59.5t245.5 -59.5t177 -169t65.5 -246.5t-65.5 -247t-177 -169.5t-245.5 -59.5t-245 59.5t-176.5 169.5t-65.5 247zM401 672v-443q0 -217 168 -217t168 217v443q0 217 -168 217t-168 -217zM506 1362l149 -305h-26l-269 284 q-49 52 -49 82q0 52 78 52q44 0 61 -17.5t56 -95.5z" />
<glyph unicode="&#xf3;" d="M82 451q0 137 65.5 246.5t176.5 169t245 59.5t245.5 -59.5t177 -169t65.5 -246.5t-65.5 -247t-177 -169.5t-245.5 -59.5t-245 59.5t-176.5 169.5t-65.5 247zM401 672v-443q0 -217 168 -217t168 217v443q0 217 -168 217t-168 -217zM483 1057l150 305q39 78 56 95.5 t61 17.5q77 0 77 -52q0 -30 -49 -82l-268 -284h-27z" />
<glyph unicode="&#xf4;" d="M82 451q0 137 65.5 246.5t176.5 169t245 59.5t245.5 -59.5t177 -169t65.5 -246.5t-65.5 -247t-177 -169.5t-245.5 -59.5t-245 59.5t-176.5 169.5t-65.5 247zM401 672v-443q0 -217 168 -217t168 217v443q0 217 -168 217t-168 -217zM575 1323l-262 -266h-28l221 418h139 l209 -418h-29z" />
<glyph unicode="&#xf5;" d="M82 451q0 137 65.5 246.5t176.5 169t245 59.5t245.5 -59.5t177 -169t65.5 -246.5t-65.5 -247t-177 -169.5t-245.5 -59.5t-245 59.5t-176.5 169.5t-65.5 247zM401 672v-443q0 -217 168 -217t168 217v443q0 217 -168 217t-168 -217zM283 1157h-37q34 109 53 146 q51 96 135 96q40 0 170.5 -47t183.5 -47q27 0 66 98h39q-12 -39 -19 -61t-24.5 -60t-35.5 -58.5t-48 -37.5t-66 -17q-59 0 -177.5 41t-166.5 41q-30 0 -48.5 -29t-24.5 -65z" />
<glyph unicode="&#xf6;" d="M82 451q0 137 65.5 246.5t176.5 169t245 59.5t245.5 -59.5t177 -169t65.5 -246.5t-65.5 -247t-177 -169.5t-245.5 -59.5t-245 59.5t-176.5 169.5t-65.5 247zM401 672v-443q0 -217 168 -217t168 217v443q0 217 -168 217t-168 -217zM262 1282q0 54 37.5 91.5t91.5 37.5 t91.5 -37.5t37.5 -91.5t-37.5 -91.5t-91.5 -37.5t-91.5 37.5t-37.5 91.5zM618 1282q0 54 38 91.5t92 37.5t91.5 -37.5t37.5 -91.5t-37.5 -91.5t-91.5 -37.5t-92 37.5t-38 91.5z" />
<glyph unicode="&#xf7;" horiz-adv-x="1228" d="M96 432v172h1037v-172h-1037zM459 942q0 59 44.5 103.5t102.5 44.5t103 -45t45 -103t-44.5 -102.5t-103.5 -44.5q-58 0 -102.5 44.5t-44.5 102.5zM459 94q0 59 44.5 103.5t102.5 44.5t103 -45t45 -103t-44.5 -102.5t-103.5 -44.5q-58 0 -102.5 44.5t-44.5 102.5z" />
<glyph unicode="&#xf8;" d="M401 672v-459h5l307 598q-41 78 -144 78q-168 0 -168 -217zM737 229v510h-4l-321 -616q22 -111 157 -111q168 0 168 217zM268 -43l45 88q-108 61 -169.5 167t-61.5 239q0 137 65.5 246.5t176.5 169t245 59.5q105 0 187 -33l39 76l47 -23l-39 -76q117 -58 185.5 -168 t68.5 -251q0 -137 -65.5 -247t-177 -169.5t-245.5 -59.5q-116 0 -211 45l-45 -88z" />
<glyph unicode="&#xf9;" horiz-adv-x="1251" d="M653 864v37h146q63 0 103.5 1.5t97.5 14.5t77 37v-917h142v-37h-424v172h-4q-40 -91 -131 -144t-197 -53q-147 0 -218 76.5t-71 241.5v571h-141v37h145q64 0 104.5 1.5t97.5 14.5t77 37v-712q0 -99 24.5 -146t93.5 -47q84 0 152 91.5t68 191.5v532h-142zM563 1362 l150 -305h-27l-268 284q-49 52 -49 82q0 52 77 52q44 0 61 -17.5t56 -95.5z" />
<glyph unicode="&#xfa;" horiz-adv-x="1251" d="M653 864v37h146q63 0 103.5 1.5t97.5 14.5t77 37v-917h142v-37h-424v172h-4q-40 -91 -131 -144t-197 -53q-147 0 -218 76.5t-71 241.5v571h-141v37h145q64 0 104.5 1.5t97.5 14.5t77 37v-712q0 -99 24.5 -146t93.5 -47q84 0 152 91.5t68 191.5v532h-142zM541 1057 l149 305q39 78 56 95.5t61 17.5q78 0 78 -52q0 -30 -49 -82l-269 -284h-26z" />
<glyph unicode="&#xfb;" horiz-adv-x="1251" d="M653 864v37h146q63 0 103.5 1.5t97.5 14.5t77 37v-917h142v-37h-424v172h-4q-40 -91 -131 -144t-197 -53q-147 0 -218 76.5t-71 241.5v571h-141v37h145q64 0 104.5 1.5t97.5 14.5t77 37v-712q0 -99 24.5 -146t93.5 -47q84 0 152 91.5t68 191.5v532h-142zM633 1323 l-262 -266h-29l221 418h139l209 -418h-28z" />
<glyph unicode="&#xfc;" horiz-adv-x="1251" d="M653 864v37h146q63 0 103.5 1.5t97.5 14.5t77 37v-917h142v-37h-424v172h-4q-40 -91 -131 -144t-197 -53q-147 0 -218 76.5t-71 241.5v571h-141v37h145q64 0 104.5 1.5t97.5 14.5t77 37v-712q0 -99 24.5 -146t93.5 -47q84 0 152 91.5t68 191.5v532h-142zM319 1282 q0 54 38 91.5t92 37.5t91.5 -37.5t37.5 -91.5t-37.5 -91.5t-91.5 -37.5t-92 37.5t-38 91.5zM676 1282q0 54 37.5 91.5t91.5 37.5t91.5 -37.5t37.5 -91.5t-37.5 -91.5t-91.5 -37.5t-91.5 37.5t-37.5 91.5z" />
<glyph unicode="&#xfd;" horiz-adv-x="1024" d="M16 864v37h527v-37h-135l239 -538l119 280q59 139 59 187q0 29 -24 50t-70 21h-43v37h320v-37h-17q-65 0 -131 -153l-203 -457l-106 -266l-55 -250q-6 -29 -12 -50.5t-17.5 -55.5t-28 -59t-39 -49t-54.5 -37t-71 -13q-69 0 -118.5 40.5t-49.5 102.5q0 61 35.5 100 t100.5 39q63 0 99 -34.5t36 -88.5q0 -33 -10 -69v-6q31 9 58.5 79.5t39.5 128t18 105.5l13 82l-394 911h-86zM426 1057l149 305q39 78 56 95.5t61 17.5q78 0 78 -52q0 -30 -49 -82l-268 -284h-27z" />
<glyph unicode="&#xfe;" horiz-adv-x="1251" d="M33 -543v37h141v1911h-141v37h129q93 0 137.5 2t92.5 16.5t65 44.5v-723l4 -14q80 158 254 158q133 0 233.5 -69t151.5 -179.5t51 -243.5q0 -103 -38.5 -191.5t-100.5 -145.5t-138.5 -89.5t-154.5 -32.5q-97 0 -158 38.5t-100 111.5h-4v-631h155v-37h-579zM457 629v-359 q0 -96 58.5 -170.5t154.5 -74.5q174 0 174 262v381q0 93 -43.5 151t-122.5 58q-98 0 -159.5 -77t-61.5 -171z" />
<glyph unicode="&#xff;" horiz-adv-x="1024" d="M16 864v37h527v-37h-135l239 -538l119 280q59 139 59 187q0 29 -24 50t-70 21h-43v37h320v-37h-17q-65 0 -131 -153l-203 -457l-106 -266l-55 -250q-6 -29 -12 -50.5t-17.5 -55.5t-28 -59t-39 -49t-54.5 -37t-71 -13q-69 0 -118.5 40.5t-49.5 102.5q0 61 35.5 100 t100.5 39q63 0 99 -34.5t36 -88.5q0 -33 -10 -69v-6q31 9 58.5 79.5t39.5 128t18 105.5l13 82l-394 911h-86zM205 1282q0 54 37.5 91.5t91.5 37.5t91.5 -37.5t37.5 -91.5t-37.5 -91.5t-91.5 -37.5t-91.5 37.5t-37.5 91.5zM561 1282q0 54 37.5 91.5t91.5 37.5t91.5 -37.5 t37.5 -91.5t-37.5 -91.5t-91.5 -37.5t-91.5 37.5t-37.5 91.5z" />
<glyph unicode="&#x152;" horiz-adv-x="2048" d="M973 291v899q1 132 -62 190t-163 58q-59 0 -102.5 -12.5t-86 -52t-69 -107t-42.5 -182t-16 -273.5v-195q0 -612 309 -612q133 0 182.5 67.5t49.5 219.5zM1939 461v-461h-809q-64 0 -204 -16q-149 -17 -185 -17q-136 0 -257.5 58.5t-208 158.5t-137 240t-50.5 297 q0 115 28 225.5t83.5 205.5t132 167.5t180 114t221.5 41.5q43 0 74 -3.5t58.5 -10t35.5 -7.5q102 -12 164 -12h817v-408h-37v53q0 318 -387 318h-178v-627h115q43 0 76.5 12t54 33.5t34 46t19.5 56t8 55.5t2 53v37h37v-647h-37v49q0 42 -10.5 84t-34.5 85.5t-72 71 t-114 27.5h-78v-704h207q82 1 147 15t108 34.5t74 53.5t47.5 63.5t26 73t11.5 73.5t2 74v37h36z" />
<glyph unicode="&#x153;" horiz-adv-x="1705" d="M1004 532h292v197q0 85 -37.5 121.5t-109.5 36.5q-64 0 -104.5 -46t-40.5 -153v-156zM1004 496v-172q0 -299 243 -299q119 0 204.5 82.5t119.5 226.5h37q-36 -164 -139.5 -261.5t-282.5 -97.5q-79 0 -164 31t-145 82q-74 -57 -146 -85t-162 -28q-134 0 -245 59.5 t-176.5 169.5t-65.5 247t65.5 246.5t176.5 169t245 59.5q173 0 303 -121h5q130 121 303 121q117 0 215.5 -61.5t153 -160t55.5 -208.5h-600zM401 696v-491q0 -95 43.5 -144t122.5 -49q86 0 132 48.5t46 144.5v448q0 125 -45 180.5t-133 55.5q-79 0 -122.5 -49t-43.5 -144z " />
<glyph unicode="&#x178;" horiz-adv-x="1366" d="M395 0v37h158v465l-397 903h-136v37h631v-37h-147l338 -774l243 553q41 97 41 141q0 41 -27.5 60.5t-94.5 19.5h-27v37h369v-37h-15q-55 0 -94.5 -40.5t-85.5 -152.5l-279 -624v-551h158v-37h-635zM469 1690q0 54 37.5 91.5t91.5 37.5t91.5 -37.5t37.5 -91.5t-37.5 -91.5 t-91.5 -37.5t-91.5 37.5t-37.5 91.5zM825 1690q0 54 37.5 91.5t91.5 37.5t91.5 -37.5t37.5 -91.5t-37.5 -91.5t-91.5 -37.5t-91.5 37.5t-37.5 91.5z" />
<glyph unicode="&#x2c6;" horiz-adv-x="569" d="M291 1323l-262 -266h-29l221 418h139l209 -418h-28z" />
<glyph unicode="&#x2dc;" horiz-adv-x="569" d="M-2 1157h-37q34 111 56 150q50 92 133 92q40 0 170.5 -47t183.5 -47q26 0 65 98h39q-12 -40 -18.5 -61t-24.5 -59.5t-35.5 -59t-47.5 -37.5t-66 -17q-59 0 -177.5 41t-166.5 41q-31 0 -50 -29t-24 -65z" />
<glyph unicode="&#x2000;" horiz-adv-x="971" />
<glyph unicode="&#x2001;" horiz-adv-x="1942" />
<glyph unicode="&#x2002;" horiz-adv-x="971" />
<glyph unicode="&#x2003;" horiz-adv-x="1942" />
<glyph unicode="&#x2004;" horiz-adv-x="647" />
<glyph unicode="&#x2005;" horiz-adv-x="485" />
<glyph unicode="&#x2006;" horiz-adv-x="323" />
<glyph unicode="&#x2007;" horiz-adv-x="323" />
<glyph unicode="&#x2008;" horiz-adv-x="242" />
<glyph unicode="&#x2009;" horiz-adv-x="388" />
<glyph unicode="&#x200a;" horiz-adv-x="107" />
<glyph unicode="&#x2010;" horiz-adv-x="909" d="M799 612l-76 -188q-38 1 -155.5 4.5t-182.5 3.5q-53 0 -148 -3.5t-126 -4.5l75 188q141 -8 322 -8q99 0 291 8z" />
<glyph unicode="&#x2011;" horiz-adv-x="909" d="M799 612l-76 -188q-38 1 -155.5 4.5t-182.5 3.5q-53 0 -148 -3.5t-126 -4.5l75 188q141 -8 322 -8q99 0 291 8z" />
<glyph unicode="&#x2012;" horiz-adv-x="909" d="M799 612l-76 -188q-38 1 -155.5 4.5t-182.5 3.5q-53 0 -148 -3.5t-126 -4.5l75 188q141 -8 322 -8q99 0 291 8z" />
<glyph unicode="&#x2013;" horiz-adv-x="1024" d="M0 438v160h1024v-160h-1024z" />
<glyph unicode="&#x2014;" horiz-adv-x="2048" d="M0 438v160h2048v-160h-2048z" />
<glyph unicode="&#x2018;" horiz-adv-x="569" d="M428 1475v-35q-122 -26 -193 -118.5t-73 -219.5h4q52 61 135 61q75 0 115.5 -46.5t40.5 -119.5q0 -67 -47.5 -116.5t-116.5 -49.5q-85 0 -132.5 61t-47.5 169q0 163 82 274t233 140z" />
<glyph unicode="&#x2019;" horiz-adv-x="569" d="M141 831v35q122 26 193.5 118.5t73.5 219.5h-5q-52 -61 -135 -61q-75 0 -115 46.5t-40 119.5q0 67 47 116.5t116 49.5q85 0 133 -61.5t48 -168.5q0 -163 -82.5 -274t-233.5 -140z" />
<glyph unicode="&#x201a;" horiz-adv-x="569" d="M141 -336v35q122 26 193.5 118.5t73.5 219.5h-5q-52 -62 -135 -62q-75 0 -115 46.5t-40 119.5q0 67 47 116.5t116 49.5q85 0 133 -61t48 -168q0 -163 -82.5 -274t-233.5 -140z" />
<glyph unicode="&#x201c;" horiz-adv-x="1024" d="M428 1475v-35q-122 -26 -193 -118.5t-73 -219.5h4q52 61 135 61q75 0 115.5 -46.5t40.5 -119.5q0 -67 -47.5 -116.5t-116.5 -49.5q-85 0 -132.5 61t-47.5 169q0 163 82 274t233 140zM883 1475v-35q-122 -26 -193.5 -118.5t-73.5 -219.5h5q52 61 135 61q75 0 115 -46.5 t40 -119.5q0 -67 -47 -116.5t-116 -49.5q-85 0 -133 61.5t-48 168.5q0 163 82.5 274t233.5 140z" />
<glyph unicode="&#x201d;" horiz-adv-x="1024" d="M141 831v35q122 26 193.5 118.5t73.5 219.5h-5q-52 -61 -135 -61q-75 0 -115 46.5t-40 119.5q0 67 47 116.5t116 49.5q85 0 133 -61.5t48 -168.5q0 -163 -82.5 -274t-233.5 -140zM596 831v35q122 26 193 118.5t73 219.5h-4q-52 -61 -135 -61q-75 0 -115.5 46.5 t-40.5 119.5q0 67 47.5 116.5t116.5 49.5q85 0 132.5 -61t47.5 -169q0 -163 -82 -274t-233 -140z" />
<glyph unicode="&#x201e;" horiz-adv-x="1024" d="M141 -336v35q122 26 193.5 118.5t73.5 219.5h-5q-52 -62 -135 -62q-75 0 -115 46.5t-40 119.5q0 67 47 116.5t116 49.5q85 0 133 -61t48 -168q0 -163 -82.5 -274t-233.5 -140zM596 -336v35q122 26 193 118.5t73 219.5h-4q-52 -62 -135 -62q-75 0 -115.5 46.5t-40.5 119.5 q0 67 47.5 116.5t116.5 49.5q85 0 132.5 -61t47.5 -168q0 -163 -82 -274t-233 -140z" />
<glyph unicode="&#x2022;" horiz-adv-x="1024" d="M152 721q0 149 105.5 254.5t254.5 105.5t254.5 -105.5t105.5 -254.5t-105.5 -255t-254.5 -106t-254.5 106t-105.5 255z" />
<glyph unicode="&#x2026;" horiz-adv-x="2048" d="M176 141q0 69 48.5 117.5t117.5 48.5t117.5 -48.5t48.5 -117.5t-48.5 -117.5t-117.5 -48.5t-117.5 48.5t-48.5 117.5zM858 141q0 69 48.5 117.5t117.5 48.5t117.5 -48.5t48.5 -117.5t-48.5 -117.5t-117.5 -48.5t-117.5 48.5t-48.5 117.5zM1540 141q0 69 48.5 117.5 t117.5 48.5t117.5 -48.5t48.5 -117.5t-48.5 -117.5t-117.5 -48.5t-117.5 48.5t-48.5 117.5z" />
<glyph unicode="&#x202f;" horiz-adv-x="388" />
<glyph unicode="&#x2039;" horiz-adv-x="569" d="M469 807l-238 -289l238 -287l-74 -63l-295 350l295 350z" />
<glyph unicode="&#x203a;" horiz-adv-x="569" d="M100 229l238 289l-238 287l74 63l295 -350l-295 -350z" />
<glyph unicode="&#x205f;" horiz-adv-x="485" />
<glyph unicode="&#x20ac;" d="M1049 1159h-50q-15 98 -76.5 147.5t-158.5 49.5q-74 0 -128.5 -33t-89 -98t-54.5 -151.5t-29 -203.5h479l-37 -92h-446v-63v-66h393l-37 -94h-354q14 -228 92 -349.5t213 -121.5q89 0 153 48t80 147h50l-15 -185q-94 -108 -334 -108q-242 0 -369.5 143t-152.5 426h-141 l37 94h92q-2 18 -2 68q0 43 2 61h-129l37 92h98q15 144 50.5 250t98 183t157 116t222.5 39q236 0 334 -106z" />
<glyph unicode="&#x2122;" horiz-adv-x="2048" d="M195 614v50h43q28 0 45.5 24t17.5 72v633h-98q-102 -2 -131 -131h-49v180h741v-180h-49q-29 129 -131 131h-99v-633q0 -48 18 -72t46 -24h43v-50h-397zM1569 614v50h28q42 0 58 21t16 75v448h-4l-301 -596h-27l-286 596h-4v-405q0 -139 77 -139h29v-50h-272v50h30 q74 0 74 139v485q-20 49 -58 77t-83 28v49h284l291 -592l310 592h235v-49h-33q-35 1 -56.5 -25.5t-21.5 -71.5v-536q0 -56 17 -76t63 -20h25v-50h-391z" />
<glyph unicode="&#xe000;" horiz-adv-x="901" d="M0 901h901v-901h-901v901z" />
<glyph unicode="&#xfb01;" horiz-adv-x="1251" d="M33 0v37h141v827h-141v37h141q3 103 26 189t58.5 144t84 102.5t97 70t103 41.5t97.5 21.5t85 5.5q61 0 119.5 -13t110.5 -39.5t84 -73t32 -106.5q0 -74 -46.5 -126t-121.5 -52q-69 0 -111 46t-42 114q0 55 38 91t76 44q2 0 6 1q46 12 48 23q0 24 -59 39t-132 15 q-34 0 -67.5 -7t-71 -27t-66 -50t-47 -81t-18.5 -116v-256h293q112 0 200 8q89 3 123 37v-909h141v-37h-559v37h136v827h-334v-827h135v-37h-559z" />
<glyph unicode="&#xfb02;" horiz-adv-x="1251" d="M457 901h334v178q-37 18 -57.5 52.5t-20.5 74.5q0 54 26 88.5t78 63.5q-54 80 -164 80q-91 0 -143.5 -69t-52.5 -202v-266zM33 0v37h141v827h-141v37h141q0 135 42.5 245.5t115 181.5t165.5 109t197 38q137 0 217 -74l162 74v-1438h141v-37h-559v37h136v827h-334v-827 h141v-37h-565z" />
</font>
</defs>
</svg>
